<svg width="244" height="142" viewBox="0 0 244 142" fill="none" xmlns="http://www.w3.org/2000/svg">
<g filter="url(#filter0_d_1762_4953)">
<rect x="3" y="3.58984" width="237.558" height="135.095" rx="11.7474" fill="white"/>
<path d="M30.9888 117.685V109.397L29.3088 110.489L28.8328 109.677L31.1988 108.067H32.0808V117.685H30.9888ZM38.2343 117.853C35.8823 117.853 34.2303 115.795 34.2303 112.869C34.2303 109.957 35.8823 107.899 38.2343 107.899C40.5723 107.899 42.2243 109.957 42.2243 112.869C42.2243 115.795 40.5723 117.853 38.2343 117.853ZM38.2343 116.845C39.9283 116.845 41.1183 115.193 41.1183 112.869C41.1183 110.545 39.9283 108.907 38.2343 108.907C36.5403 108.907 35.3363 110.545 35.3363 112.869C35.3363 115.193 36.5403 116.845 38.2343 116.845ZM47.8866 117.853C45.5346 117.853 43.8826 115.795 43.8826 112.869C43.8826 109.957 45.5346 107.899 47.8866 107.899C50.2246 107.899 51.8766 109.957 51.8766 112.869C51.8766 115.795 50.2246 117.853 47.8866 117.853ZM47.8866 116.845C49.5806 116.845 50.7706 115.193 50.7706 112.869C50.7706 110.545 49.5806 108.907 47.8866 108.907C46.1926 108.907 44.9886 110.545 44.9886 112.869C44.9886 115.193 46.1926 116.845 47.8866 116.845ZM60.073 112.491V113.527H57.385V116.215H56.335V113.527H53.647V112.491H56.335V109.789H57.385V112.491H60.073ZM68.9324 117.685V109.103H65.6984V108.067H73.2584V109.103H70.0244V117.685H68.9324ZM80.0467 110.447H81.0967V117.685H80.0467V116.523C79.6267 117.293 78.6887 117.853 77.6667 117.853C76.0707 117.853 74.9507 116.691 74.9507 115.053V110.447H76.0007V114.913C76.0007 116.089 76.7427 116.915 77.8067 116.915C79.0247 116.915 80.0467 116.061 80.0467 115.053V110.447ZM86.4139 116.621L86.9319 117.391C86.5539 117.685 86.0779 117.853 85.5879 117.853C84.5519 117.853 83.8239 117.083 83.8239 116.005V111.385H82.6899V110.447H83.8239V108.459H84.8739V110.447H86.6519V111.385H84.8739V116.005C84.8739 116.537 85.2379 116.915 85.6579 116.915C85.9799 116.915 86.2599 116.789 86.4139 116.621ZM91.7775 117.853C89.7475 117.853 88.0255 116.117 88.0255 114.059C88.0255 112.001 89.7475 110.279 91.7775 110.279C93.8075 110.279 95.5155 112.001 95.5155 114.059C95.5155 116.117 93.8075 117.853 91.7775 117.853ZM91.7775 116.915C93.2055 116.915 94.4095 115.613 94.4095 114.059C94.4095 112.519 93.2055 111.217 91.7775 111.217C90.3355 111.217 89.1315 112.519 89.1315 114.059C89.1315 115.613 90.3355 116.915 91.7775 116.915ZM98.3975 111.861C98.8315 110.895 99.8675 110.279 101.198 110.279V111.217C99.5595 111.217 98.3975 112.225 98.3975 113.639V117.685H97.3475V110.447H98.3975V111.861ZM105.212 117.853C104.204 117.853 103.084 117.475 102.216 116.775L102.762 116.005C103.588 116.607 104.414 116.915 105.212 116.915C106.164 116.915 106.808 116.467 106.808 115.781C106.808 114.997 105.968 114.745 104.988 114.465C103.238 113.961 102.566 113.443 102.566 112.407C102.566 111.091 103.658 110.279 105.1 110.279C105.996 110.279 106.92 110.587 107.69 111.091L107.186 111.903C106.458 111.441 105.744 111.217 105.1 111.217C104.288 111.217 103.616 111.581 103.616 112.281C103.616 112.911 104.148 113.107 105.492 113.541C106.654 113.905 107.858 114.297 107.858 115.669C107.858 116.999 106.71 117.853 105.212 117.853Z" fill="#40A39B"/>
<path d="M39.856 98.6846L38.896 96.4446H33.168L32.208 98.6846H30.416L35.136 87.6926H36.928L41.648 98.6846H39.856ZM33.792 94.9886H38.272L36.032 89.7726L33.792 94.9886ZM47.1185 98.8766C44.7665 98.8766 42.7665 96.8926 42.7665 94.5406C42.7665 92.1886 44.7665 90.2206 47.1345 90.2206C48.3185 90.2206 49.3905 90.7166 50.1745 91.5006L49.1025 92.4926C48.6065 91.9326 47.8865 91.5966 47.1185 91.5966C45.6145 91.5966 44.3665 92.9406 44.3665 94.5406C44.3665 96.1566 45.6145 97.5006 47.1345 97.5006C47.9025 97.5006 48.6385 97.1486 49.1505 96.5726L50.2225 97.5486C49.4225 98.3646 48.3505 98.8766 47.1185 98.8766ZM55.3896 90.2206C57.6136 90.2206 58.8456 91.6286 58.8456 93.6766V98.6846H57.2936V97.5486C56.6856 98.4126 55.5496 98.8766 54.5416 98.8766C52.7816 98.8766 51.4856 97.8526 51.4856 96.2366C51.4856 94.5886 52.9736 93.4846 54.7976 93.4846C55.6136 93.4846 56.4936 93.6606 57.2936 93.9326V93.6766C57.2936 92.6366 56.8136 91.5326 55.1656 91.5326C54.3496 91.5326 53.5496 91.8526 52.8296 92.2206L52.2536 91.0526C53.4376 90.4606 54.4776 90.2206 55.3896 90.2206ZM54.8456 97.6286C55.8696 97.6286 57.0216 97.1166 57.2936 96.0926V94.9886C56.6216 94.7806 55.8536 94.6686 55.0376 94.6686C53.9336 94.6686 53.0056 95.2926 53.0056 96.1886C53.0056 97.0846 53.8056 97.6286 54.8456 97.6286ZM67.5044 87.5006H69.0724V98.6846H67.5044V97.2446C66.8644 98.2686 65.8404 98.8766 64.5604 98.8766C62.3844 98.8766 60.7524 97.0846 60.7524 94.5406C60.7524 92.0126 62.3844 90.2206 64.5604 90.2206C65.8404 90.2206 66.8644 90.8286 67.5044 91.8366V87.5006ZM64.9444 97.5006C66.4324 97.5006 67.5044 96.2686 67.5044 94.5406C67.5044 92.8126 66.4324 91.5966 64.9444 91.5966C63.4244 91.5966 62.3524 92.8126 62.3524 94.5406C62.3524 96.2686 63.4244 97.5006 64.9444 97.5006ZM75.2409 97.4686C76.1049 97.4686 77.1129 97.0846 77.6089 96.5726L78.6009 97.5966C77.8649 98.3806 76.4249 98.8766 75.2569 98.8766C72.9529 98.8766 71.0009 97.0686 71.0009 94.5246C71.0009 92.0446 72.8409 90.2206 75.1289 90.2206C77.6569 90.2206 79.1129 92.1406 79.1129 95.1006H72.6009C72.8089 96.4766 73.8169 97.4686 75.2409 97.4686ZM75.1929 91.6286C73.9129 91.6286 72.8729 92.4926 72.6169 93.8366H77.5769C77.4009 92.5566 76.6169 91.6286 75.1929 91.6286ZM90.1969 90.2206C91.9249 90.2206 93.1729 91.5486 93.1729 93.4206V98.6846H91.6209V93.6606C91.6209 92.4446 90.9009 91.5966 89.8609 91.5966C88.6769 91.5966 87.8449 92.3806 87.8449 93.5166V98.6846H86.2929V93.6606C86.2929 92.4446 85.5729 91.5966 84.5329 91.5966C83.3489 91.5966 82.5169 92.3806 82.5169 93.5166V98.6846H80.9329V90.4126H82.5169V91.5646C82.9329 90.7486 83.7969 90.2206 84.8529 90.2206C86.0529 90.2206 87.0289 90.8606 87.5089 91.8846C87.8929 90.8606 88.9489 90.2206 90.1969 90.2206ZM96.2329 89.0366C95.6889 89.0366 95.2729 88.5886 95.2729 88.0766C95.2729 87.5806 95.6889 87.1326 96.2329 87.1326C96.7449 87.1326 97.1769 87.5806 97.1769 88.0766C97.1769 88.5886 96.7449 89.0366 96.2329 89.0366ZM95.4329 98.6846V90.4126H97.0169V98.6846H95.4329ZM103.212 98.8766C100.86 98.8766 98.8603 96.8926 98.8603 94.5406C98.8603 92.1886 100.86 90.2206 103.228 90.2206C104.412 90.2206 105.484 90.7166 106.268 91.5006L105.196 92.4926C104.7 91.9326 103.98 91.5966 103.212 91.5966C101.708 91.5966 100.46 92.9406 100.46 94.5406C100.46 96.1566 101.708 97.5006 103.228 97.5006C103.996 97.5006 104.732 97.1486 105.244 96.5726L106.316 97.5486C105.516 98.3646 104.444 98.8766 103.212 98.8766Z" fill="black"/>
<path d="M63.638 40.9455C57.4698 38.7883 51.523 37.2906 45.4755 41.3956C39.428 37.2906 33.4811 38.7884 27.313 40.9455C26.555 41.2107 26.0449 41.9452 26.0449 42.7708V65.8537C26.0449 67.098 27.2265 67.9799 28.3748 67.5912C32.8109 66.0892 37.1961 64.3989 41.5393 65.6442C42.4045 65.8923 43.1925 66.3748 43.818 67.0382C44.5893 67.8564 46.3244 67.9074 47.1123 67.1029C47.8018 66.3987 48.631 65.8535 49.5705 65.5994C53.8618 64.4384 58.1941 66.1076 62.5762 67.5912C63.7244 67.98 64.906 67.098 64.906 65.8538V42.7708C64.906 41.9452 64.396 41.2107 63.638 40.9455Z" fill="#40A39B"/>
<path d="M61.4638 41.093C56.0337 39.1943 50.7985 37.876 45.4746 41.4892C40.1508 37.876 34.9155 39.1943 29.4855 41.093C28.8181 41.3264 28.3691 41.9729 28.3691 42.6996V62.3086C28.3691 63.4055 29.4114 64.1793 30.4238 63.8366C35.2356 62.2076 39.9794 61.1776 44.6698 64.0293C45.1671 64.3316 45.7823 64.3316 46.2796 64.0293C50.9701 61.1776 55.7138 62.2076 60.5256 63.8366C61.5379 64.1793 62.5802 63.4055 62.5802 62.3086V42.6996C62.5801 41.9729 62.1312 41.3264 61.4638 41.093Z" fill="#D7FFFC"/>
<path d="M62.5801 60.5299C56.7858 58.4514 51.0925 56.5642 45.4746 60.5299V37.4614C50.7984 33.8482 56.0337 35.1664 61.4638 37.0652C62.1311 37.2985 62.5801 37.945 62.5801 38.6717V60.5299Z" fill="#F7F9FA"/>
<path d="M61.4637 37.0652C58.0079 35.8568 54.6309 34.8835 51.2598 35.2669C53.5969 35.5072 55.9476 36.23 58.336 37.0652C59.0034 37.2986 59.4523 37.9451 59.4523 38.6718V59.4565C60.4917 59.7858 61.5342 60.1547 62.58 60.5299V38.6718C62.58 37.9451 62.1311 37.2986 61.4637 37.0652Z" fill="#ECF1F5"/>
<path d="M28.3691 60.5299C34.1635 58.4514 39.8567 56.5642 45.4746 60.5299V37.4614C40.1508 33.8482 34.9155 35.1664 29.4855 37.0652C28.8181 37.2985 28.3691 37.945 28.3691 38.6717V60.5299Z" fill="#F7F9FA"/>
<path d="M36.5625 35.2669C38.4883 35.4859 40.4122 36.1477 42.3477 37.4613V58.8934C43.3929 59.2624 44.4354 59.7958 45.4754 60.5299V37.4613C42.4933 35.4374 39.5389 34.9608 36.5625 35.2669Z" fill="#ECF1F5"/>
<path d="M31.4966 40.3731C31.2493 40.3731 31.0193 40.2108 30.9389 39.9555C30.839 39.6384 31.0077 39.2979 31.3158 39.1952C34.25 38.2157 36.2982 37.7979 38.1646 37.7979C39.7653 37.7979 41.2146 38.1214 42.5956 38.787C42.8888 38.9283 43.0153 39.2877 42.878 39.5896C42.7406 39.8916 42.3916 40.0216 42.0982 39.8803C40.8763 39.2914 39.5897 39.0051 38.1646 39.0051C36.4282 39.0051 34.4882 39.4054 31.6776 40.3436C31.6175 40.3636 31.5565 40.3731 31.4966 40.3731Z" fill="#EBBE49"/>
<path d="M31.4966 43.2925C31.2493 43.2925 31.0193 43.1303 30.9389 42.8749C30.839 42.5578 31.0077 42.2174 31.3158 42.1146C34.25 41.1352 36.2982 40.7173 38.1646 40.7173C39.7653 40.7173 41.2146 41.0408 42.5956 41.7064C42.8888 41.8478 43.0153 42.2071 42.878 42.5091C42.7406 42.811 42.3916 42.9411 42.0982 42.7997C40.8763 42.2108 39.5897 41.9246 38.1646 41.9246C36.4282 41.9246 34.4882 42.3249 31.6776 43.263C31.6175 43.283 31.5565 43.2925 31.4966 43.2925Z" fill="#40A39B"/>
<path d="M31.4966 46.2115C31.2493 46.2115 31.0193 46.0492 30.9389 45.7939C30.839 45.4768 31.0077 45.1363 31.3158 45.0336C34.25 44.0541 36.2982 43.6362 38.1646 43.6362C39.7653 43.6362 41.2146 43.9597 42.5956 44.6254C42.8888 44.7667 43.0153 45.1261 42.878 45.428C42.7406 45.7299 42.3916 45.86 42.0982 45.7187C40.8763 45.1297 39.5897 44.8435 38.1646 44.8435C36.4282 44.8435 34.4882 45.2438 31.6776 46.1819C31.6175 46.2019 31.5565 46.2115 31.4966 46.2115Z" fill="#40A39B"/>
<path d="M59.4525 50.8253C59.3926 50.8253 59.3316 50.8158 59.2715 50.7957C56.4609 49.8576 54.5209 49.4573 52.7844 49.4573C51.3594 49.4573 50.0727 49.7435 48.8509 50.3324C48.5575 50.4738 48.2085 50.3437 48.0711 50.0418C47.9338 49.7399 48.0602 49.3805 48.3535 49.2391C49.7344 48.5735 51.1838 48.25 52.7844 48.25C54.6508 48.25 56.6991 48.6679 59.6332 49.6473C59.9413 49.7502 60.1101 50.0905 60.0102 50.4077C59.9299 50.663 59.6999 50.8253 59.4525 50.8253Z" fill="#40A39B"/>
<path d="M59.4525 53.7447C59.3926 53.7447 59.3316 53.7352 59.2715 53.7151C56.4609 52.777 54.5209 52.3767 52.7844 52.3767C51.3594 52.3767 50.0727 52.663 48.8509 53.2519C48.5575 53.3933 48.2085 53.2631 48.0711 52.9612C47.9338 52.6594 48.0602 52.2999 48.3535 52.1586C49.7344 51.493 51.1838 51.1694 52.7844 51.1694C54.6508 51.1694 56.6991 51.5873 59.6332 52.5668C59.9413 52.6696 60.1101 53.01 60.0102 53.3271C59.9299 53.5825 59.6999 53.7447 59.4525 53.7447Z" fill="#40A39B"/>
<path d="M59.4525 56.6637C59.3926 56.6637 59.3316 56.6542 59.2715 56.6341C56.4609 55.696 54.5209 55.2956 52.7844 55.2956C51.3594 55.2956 50.0727 55.5819 48.8509 56.1708C48.5575 56.3121 48.2085 56.1821 48.0711 55.8802C47.9338 55.5783 48.0602 55.2188 48.3535 55.0775C49.7344 54.4119 51.1838 54.0884 52.7844 54.0884C54.6508 54.0884 56.6991 54.5063 59.6332 55.4857C59.9413 55.5885 60.1101 55.9289 60.0102 56.246C59.9299 56.5013 59.6999 56.6637 59.4525 56.6637Z" fill="#EBBE49"/>
<path d="M45.7618 27.8588L46.426 29.1088C46.4558 29.1649 46.5008 29.2112 46.5553 29.2419L47.7697 29.9256C47.9954 30.0526 47.9954 30.3862 47.7697 30.5132L46.5553 31.1969C46.5008 31.2276 46.4558 31.2738 46.426 31.33L45.7618 32.58C45.6384 32.8123 45.3143 32.8123 45.1909 32.58L44.5267 31.33C44.4968 31.2738 44.4519 31.2276 44.3973 31.1969L43.1829 30.5132C42.9573 30.3862 42.9573 30.0526 43.1829 29.9256L44.3973 29.2419C44.4519 29.2112 44.4968 29.1649 44.5267 29.1088L45.1909 27.8588C45.3143 27.6265 45.6384 27.6265 45.7618 27.8588Z" fill="#FFD15B"/>
<path d="M54.3145 40.2142L54.9787 41.4642C55.0086 41.5204 55.0535 41.5667 55.1081 41.5974L56.3225 42.281C56.5481 42.4081 56.5481 42.7417 56.3225 42.8687L55.1081 43.5524C55.0535 43.5831 55.0086 43.6293 54.9787 43.6855L54.3145 44.9355C54.1911 45.1678 53.867 45.1678 53.7436 44.9355L53.0794 43.6855C53.0496 43.6293 53.0046 43.5831 52.9501 43.5524L51.7356 42.8687C51.51 42.7417 51.51 42.4081 51.7356 42.281L52.9501 41.5974C53.0046 41.5667 53.0496 41.5204 53.0794 41.4642L53.7436 40.2142C53.867 39.982 54.1911 39.982 54.3145 40.2142Z" fill="#40A39B"/>
<path d="M37.2091 49.3769L37.8733 50.6269C37.9031 50.6831 37.948 50.7293 38.0026 50.76L39.217 51.4437C39.4427 51.5707 39.4427 51.9043 39.217 52.0313L38.0026 52.715C37.948 52.7457 37.9031 52.792 37.8733 52.8481L37.2091 54.0981C37.0856 54.3304 36.7615 54.3304 36.6381 54.0981L35.9739 52.8481C35.9441 52.792 35.8992 52.7457 35.8446 52.715L34.6302 52.0313C34.4045 51.9043 34.4045 51.5707 34.6302 51.4437L35.8446 50.76C35.8992 50.7293 35.9441 50.6831 35.9739 50.6269L36.6381 49.3769C36.7615 49.1446 37.0856 49.1446 37.2091 49.3769Z" fill="#FFD15B"/>
</g>
<defs>
<filter id="filter0_d_1762_4953" x="0" y="0.589844" width="243.559" height="141.095" filterUnits="userSpaceOnUse" color-interpolation-filters="sRGB">
<feFlood flood-opacity="0" result="BackgroundImageFix"/>
<feColorMatrix in="SourceAlpha" type="matrix" values="0 0 0 0 0 0 0 0 0 0 0 0 0 0 0 0 0 0 127 0" result="hardAlpha"/>
<feOffset/>
<feGaussianBlur stdDeviation="1.5"/>
<feComposite in2="hardAlpha" operator="out"/>
<feColorMatrix type="matrix" values="0 0 0 0 0 0 0 0 0 0 0 0 0 0 0 0 0 0 0.1 0"/>
<feBlend mode="normal" in2="BackgroundImageFix" result="effect1_dropShadow_1762_4953"/>
<feBlend mode="normal" in="SourceGraphic" in2="effect1_dropShadow_1762_4953" result="shape"/>
</filter>
</defs>
</svg>
