<svg width="245" height="142" viewBox="0 0 245 142" fill="none" xmlns="http://www.w3.org/2000/svg">
<g filter="url(#filter0_d_1762_4983)">
<rect x="3.55859" y="3.58984" width="237.558" height="135.095" rx="11.7474" fill="white"/>
<g clip-path="url(#clip0_1762_4983)">
<path d="M43.3945 54.668V66.8249C43.3945 67.0773 43.5991 67.282 43.8515 67.282H66.7546C67.007 67.282 67.2115 67.0772 67.2115 66.8249V54.668L57.3813 53.0649L43.3945 54.668Z" fill="#C6FFC9"/>
<path d="M65.0487 54.0854V66.8248C65.0487 67.0772 64.8441 67.2819 64.5918 67.2819H66.7559C67.0082 67.2819 67.2127 67.0771 67.2127 66.8247V54.6679L65.0487 54.0854Z" fill="#C6FFC9"/>
<path d="M61.7163 54.7886C61.3843 54.7886 61.1152 55.0576 61.1152 55.3897V67.2818H62.3175V55.3897C62.3174 55.0576 62.0484 54.7886 61.7163 54.7886Z" fill="#40A39B"/>
<path d="M55.0425 54.7886C54.7105 54.7886 54.4414 55.0576 54.4414 55.3897V67.2818H55.6437V55.3897C55.6437 55.0576 55.3745 54.7886 55.0425 54.7886Z" fill="#40A39B"/>
<path d="M43.3945 54.6679H67.2115V51.5135C67.2115 51.2612 67.007 51.0566 66.7546 51.0566H63.2295L61.5984 51.8581L60.1993 51.0566H56.5566L55.0415 52.6596L53.5264 51.0566H43.8515C43.5991 51.0566 43.3945 51.2612 43.3945 51.5136V54.6679Z" fill="#40A39B"/>
<path d="M65.0487 51.5136V54.6679H67.2127V51.5135C67.2127 51.2611 67.0082 51.0566 66.7559 51.0566H64.5918C64.8441 51.0566 65.0487 51.2612 65.0487 51.5136Z" fill="#40A39B"/>
<path d="M53.5273 51.0566V55.8764C53.5273 56.2855 53.859 56.6171 54.268 56.6171H55.8168C56.2259 56.6171 56.5575 56.2855 56.5575 55.8764V51.0566H53.5273Z" fill="#EEC06B"/>
<path d="M60.1992 51.0566V55.8764C60.1992 56.2855 60.5309 56.6171 60.9399 56.6171H62.4887C62.8977 56.6171 63.2294 56.2855 63.2294 55.8764V51.0566H60.1992Z" fill="#EEC06B"/>
<path d="M49.9616 56.739C49.7041 56.4483 49.6133 56.0447 49.7385 55.6771C49.9162 55.1554 50.0121 54.6203 50.0121 54.0925C50.0121 51.2669 47.275 50.105 43.8985 50.105C40.522 50.105 37.7849 51.2669 37.7849 54.0925C37.7849 54.6202 37.8808 55.1554 38.0584 55.6771C38.1812 56.0376 38.1025 56.4388 37.8492 56.7233C36.5149 58.2218 35.728 60.2183 35.8061 62.4001C35.955 66.5659 39.3 68.2785 43.4627 68.4966C48.133 68.7414 51.9964 66.7203 51.9964 62.1037C51.9964 60.0452 51.227 58.1675 49.9616 56.739Z" fill="#40A39B"/>
<path d="M49.9624 56.739C49.7049 56.4483 49.6141 56.0447 49.7394 55.6771C49.917 55.1554 50.013 54.6203 50.013 54.0925C50.013 51.2669 47.2759 50.105 43.8994 50.105C43.544 50.105 43.1962 50.1187 42.8574 50.145C45.7373 50.3688 47.9291 51.5642 47.9291 54.0924C47.9291 54.6202 47.833 55.1554 47.6553 55.6771C47.5301 56.0447 47.621 56.4483 47.8785 56.739C49.1439 58.1674 49.9132 60.0451 49.9132 62.1036C49.9132 66.1226 46.9852 68.1742 43.1461 68.4767C43.2514 68.4843 43.3572 68.4911 43.4636 68.4966C48.1338 68.7414 51.9973 66.7203 51.9973 62.1037C51.9973 60.0452 51.2278 58.1675 49.9624 56.739Z" fill="#39968E"/>
<path d="M44.2243 63.3103C45.3589 63.1264 46.1296 62.0576 45.9456 60.923C45.7617 59.7884 44.6928 59.0177 43.5583 59.2016C42.4237 59.3856 41.653 60.4544 41.8369 61.589C42.0209 62.7236 43.0897 63.4943 44.2243 63.3103Z" fill="#EBBE49"/>
<path d="M58.4732 44.5737C58.4732 44.5737 61.6332 42.9877 61.7957 42.8939L70.54 37.8454C71.2811 37.4175 71.5351 36.4698 71.1072 35.7286C70.6793 34.9876 69.7317 34.7336 68.9905 35.1615C68.9905 35.1615 59.9239 40.4025 59.7673 40.506L57.1484 42.2354C56.7963 42.468 56.3668 42.5679 55.9529 42.4859C55.3732 42.3711 54.7468 42.4786 54.2106 42.8454C53.2775 43.4835 52.9514 44.7363 53.4538 45.749C54.0475 46.9458 55.5162 47.3768 56.6551 46.7192C57.155 46.4306 57.5048 45.9821 57.6776 45.4756C57.8119 45.0818 58.101 44.7597 58.4732 44.5737Z" fill="#494949"/>
<path d="M45.6663 34.2446V55.6443C45.6663 55.8038 45.5145 55.9171 45.3607 55.8753C44.8947 55.7487 44.4042 55.681 43.8982 55.681C43.3929 55.681 42.9027 55.7481 42.4366 55.8749C42.2827 55.9168 42.1309 55.8035 42.1309 55.644V34.2446H45.6663Z" fill="#494949"/>
<path d="M43.8229 34.2446V55.6443C43.8229 55.6575 43.8204 55.6698 43.8184 55.6823C43.845 55.6819 43.8715 55.681 43.8982 55.681C44.4042 55.681 44.8947 55.7487 45.3607 55.8753C45.5146 55.9171 45.6663 55.8038 45.6663 55.6443V34.2446H43.8229Z" fill="#1A1A1A"/>
<path d="M42.1348 55.6821C42.157 55.8206 42.2949 55.9132 42.436 55.8748C42.6124 55.8267 42.7923 55.7874 42.9752 55.7569C42.7013 55.7112 42.4205 55.6862 42.1348 55.6821Z" fill="#655E67"/>
<path d="M42.0037 29.0915L41.2276 34.4761C41.1861 34.7643 41.4097 35.0223 41.7008 35.0223H46.0948C46.386 35.0223 46.6095 34.7643 46.568 34.4761L45.7919 29.0915C45.758 28.8563 45.5565 28.6816 45.3187 28.6816H42.4769C42.2393 28.6816 42.0376 28.8563 42.0037 29.0915Z" fill="#EBBE49"/>
<path d="M46.5695 34.4761L45.7934 29.0915C45.7595 28.8563 45.558 28.6816 45.3202 28.6816H43.2363C43.474 28.6816 43.6756 28.8563 43.7095 29.0915L44.4856 34.476C44.5272 34.7642 44.3036 35.0223 44.0124 35.0223H46.0963C46.3876 35.0224 46.6111 34.7643 46.5695 34.4761Z" fill="#E9A52D"/>
<path d="M58.4535 29.675L56.5746 28.637C56.2758 28.4719 55.9217 28.4768 55.6277 28.6504C55.3336 28.8238 55.158 29.1313 55.158 29.4727V33.0863C54.7964 32.8731 54.3755 32.7503 53.9263 32.7503C52.5841 32.7503 51.4922 33.8422 51.4922 35.1844C51.4922 36.5266 52.5841 37.6185 53.9263 37.6185C55.2684 37.6185 56.3603 36.5266 56.3603 35.1844V29.8922L57.8721 30.7274C58.163 30.8881 58.5285 30.7824 58.689 30.4919C58.8495 30.2012 58.7441 29.8355 58.4535 29.675Z" fill="#40A39B"/>
</g>
<path d="M31.5473 118.4V110.112L29.8673 111.204L29.3913 110.392L31.7573 108.782H32.6393V118.4H31.5473ZM38.7929 118.568C36.4409 118.568 34.7889 116.51 34.7889 113.584C34.7889 110.672 36.4409 108.614 38.7929 108.614C41.1309 108.614 42.7829 110.672 42.7829 113.584C42.7829 116.51 41.1309 118.568 38.7929 118.568ZM38.7929 117.56C40.4869 117.56 41.6769 115.908 41.6769 113.584C41.6769 111.26 40.4869 109.622 38.7929 109.622C37.0989 109.622 35.8949 111.26 35.8949 113.584C35.8949 115.908 37.0989 117.56 38.7929 117.56ZM48.4452 118.568C46.0932 118.568 44.4412 116.51 44.4412 113.584C44.4412 110.672 46.0932 108.614 48.4452 108.614C50.7832 108.614 52.4352 110.672 52.4352 113.584C52.4352 116.51 50.7832 118.568 48.4452 118.568ZM48.4452 117.56C50.1392 117.56 51.3292 115.908 51.3292 113.584C51.3292 111.26 50.1392 109.622 48.4452 109.622C46.7512 109.622 45.5472 111.26 45.5472 113.584C45.5472 115.908 46.7512 117.56 48.4452 117.56ZM60.6316 113.206V114.242H57.9436V116.93H56.8936V114.242H54.2056V113.206H56.8936V110.504H57.9436V113.206H60.6316ZM69.491 118.4V109.818H66.257V108.782H73.817V109.818H70.583V118.4H69.491ZM80.6053 111.162H81.6553V118.4H80.6053V117.238C80.1853 118.008 79.2473 118.568 78.2253 118.568C76.6293 118.568 75.5093 117.406 75.5093 115.768V111.162H76.5593V115.628C76.5593 116.804 77.3013 117.63 78.3653 117.63C79.5833 117.63 80.6053 116.776 80.6053 115.768V111.162ZM86.9725 117.336L87.4905 118.106C87.1125 118.4 86.6365 118.568 86.1465 118.568C85.1105 118.568 84.3825 117.798 84.3825 116.72V112.1H83.2485V111.162H84.3825V109.174H85.4325V111.162H87.2105V112.1H85.4325V116.72C85.4325 117.252 85.7965 117.63 86.2165 117.63C86.5385 117.63 86.8185 117.504 86.9725 117.336ZM92.3361 118.568C90.3061 118.568 88.5841 116.832 88.5841 114.774C88.5841 112.716 90.3061 110.994 92.3361 110.994C94.3661 110.994 96.0741 112.716 96.0741 114.774C96.0741 116.832 94.3661 118.568 92.3361 118.568ZM92.3361 117.63C93.7641 117.63 94.9681 116.328 94.9681 114.774C94.9681 113.234 93.7641 111.932 92.3361 111.932C90.8941 111.932 89.6901 113.234 89.6901 114.774C89.6901 116.328 90.8941 117.63 92.3361 117.63ZM98.9561 112.576C99.3901 111.61 100.426 110.994 101.756 110.994V111.932C100.118 111.932 98.9561 112.94 98.9561 114.354V118.4H97.9061V111.162H98.9561V112.576ZM105.771 118.568C104.763 118.568 103.643 118.19 102.775 117.49L103.321 116.72C104.147 117.322 104.973 117.63 105.771 117.63C106.723 117.63 107.367 117.182 107.367 116.496C107.367 115.712 106.527 115.46 105.547 115.18C103.797 114.676 103.125 114.158 103.125 113.122C103.125 111.806 104.217 110.994 105.659 110.994C106.555 110.994 107.479 111.302 108.249 111.806L107.745 112.618C107.017 112.156 106.303 111.932 105.659 111.932C104.847 111.932 104.175 112.296 104.175 112.996C104.175 113.626 104.707 113.822 106.051 114.256C107.213 114.62 108.417 115.012 108.417 116.384C108.417 117.714 107.269 118.568 105.771 118.568Z" fill="#40A39B"/>
<path d="M38.4626 92.1086C38.4626 93.8046 37.3106 95.1006 35.6466 95.5326L38.4466 99.5166H36.5906L33.9026 95.6926H31.3746V99.5166H29.7586V88.5246H34.3826C36.7026 88.5246 38.4626 90.0126 38.4626 92.1086ZM31.3746 90.0286V94.1886H34.1586C35.7426 94.1886 36.8146 93.4046 36.8146 92.1086C36.8146 90.8126 35.7426 90.0286 34.1586 90.0286H31.3746ZM44.0495 98.3006C44.9135 98.3006 45.9215 97.9166 46.4175 97.4046L47.4095 98.4286C46.6735 99.2126 45.2335 99.7086 44.0655 99.7086C41.7615 99.7086 39.8095 97.9006 39.8095 95.3566C39.8095 92.8766 41.6495 91.0526 43.9375 91.0526C46.4655 91.0526 47.9215 92.9726 47.9215 95.9326H41.4095C41.6175 97.3086 42.6255 98.3006 44.0495 98.3006ZM44.0015 92.4606C42.7215 92.4606 41.6815 93.3246 41.4255 94.6686H46.3855C46.2095 93.3886 45.4255 92.4606 44.0015 92.4606ZM53.6615 99.7086C51.3095 99.7086 49.3095 97.7246 49.3095 95.3726C49.3095 93.0206 51.3095 91.0526 53.6775 91.0526C54.8615 91.0526 55.9335 91.5486 56.7175 92.3326L55.6455 93.3246C55.1495 92.7646 54.4295 92.4286 53.6615 92.4286C52.1575 92.4286 50.9095 93.7726 50.9095 95.3726C50.9095 96.9886 52.1575 98.3326 53.6775 98.3326C54.4455 98.3326 55.1815 97.9806 55.6935 97.4046L56.7655 98.3806C55.9655 99.1966 54.8935 99.7086 53.6615 99.7086ZM60.1246 92.8286C60.6526 91.7406 61.7726 91.0526 63.1966 91.0526V92.4286C61.4846 92.4286 60.2686 93.3726 60.1246 94.8126V99.5166H58.5406V91.2446H60.1246V92.8286ZM68.5338 98.3006C69.3978 98.3006 70.4058 97.9166 70.9018 97.4046L71.8938 98.4286C71.1578 99.2126 69.7178 99.7086 68.5498 99.7086C66.2458 99.7086 64.2938 97.9006 64.2938 95.3566C64.2938 92.8766 66.1338 91.0526 68.4218 91.0526C70.9498 91.0526 72.4058 92.9726 72.4058 95.9326H65.8938C66.1018 97.3086 67.1098 98.3006 68.5338 98.3006ZM68.4858 92.4606C67.2058 92.4606 66.1658 93.3246 65.9098 94.6686H70.8698C70.6938 93.3886 69.9098 92.4606 68.4858 92.4606ZM77.7138 91.0526C79.9378 91.0526 81.1698 92.4606 81.1698 94.5086V99.5166H79.6178V98.3806C79.0098 99.2446 77.8738 99.7086 76.8658 99.7086C75.1058 99.7086 73.8098 98.6846 73.8098 97.0686C73.8098 95.4206 75.2978 94.3166 77.1218 94.3166C77.9378 94.3166 78.8178 94.4926 79.6178 94.7646V94.5086C79.6178 93.4686 79.1378 92.3646 77.4898 92.3646C76.6738 92.3646 75.8738 92.6846 75.1538 93.0526L74.5778 91.8846C75.7618 91.2926 76.8018 91.0526 77.7138 91.0526ZM77.1698 98.4606C78.1938 98.4606 79.3458 97.9486 79.6178 96.9246V95.8206C78.9458 95.6126 78.1778 95.5006 77.3618 95.5006C76.2578 95.5006 75.3298 96.1246 75.3298 97.0206C75.3298 97.9166 76.1298 98.4606 77.1698 98.4606ZM87.3326 98.0286L87.9086 99.1166C87.4606 99.4846 86.8526 99.7086 86.2606 99.7086C84.9806 99.7086 84.0846 98.7806 84.0846 97.4526V92.5886H82.8366V91.2446H84.0846V88.9726H85.6366V91.2446H87.5886V92.5886H85.6366V97.3406C85.6366 97.9166 86.0206 98.3326 86.4846 98.3326C86.8366 98.3326 87.1566 98.2046 87.3326 98.0286ZM90.3071 89.8686C89.7631 89.8686 89.3471 89.4206 89.3471 88.9086C89.3471 88.4126 89.7631 87.9646 90.3071 87.9646C90.8191 87.9646 91.2511 88.4126 91.2511 88.9086C91.2511 89.4206 90.8191 89.8686 90.3071 89.8686ZM89.5071 99.5166V91.2446H91.0911V99.5166H89.5071ZM97.3025 99.7086C94.9345 99.7086 92.9345 97.7246 92.9345 95.3726C92.9345 93.0206 94.9345 91.0526 97.3025 91.0526C99.6545 91.0526 101.638 93.0206 101.638 95.3726C101.638 97.7246 99.6545 99.7086 97.3025 99.7086ZM97.3025 98.3326C98.7905 98.3326 100.054 96.9886 100.054 95.3726C100.054 93.7726 98.7905 92.4286 97.3025 92.4286C95.7825 92.4286 94.5185 93.7726 94.5185 95.3726C94.5185 96.9886 95.7825 98.3326 97.3025 98.3326ZM107.7 91.0526C109.524 91.0526 110.804 92.3806 110.804 94.2526V99.5166H109.252V94.5246C109.252 93.2926 108.468 92.4286 107.348 92.4286C106.196 92.4286 105.204 93.1806 105.076 94.1566V99.5166H103.492V91.2446H105.076V92.4446C105.572 91.6286 106.58 91.0526 107.7 91.0526ZM116.542 91.0526C118.766 91.0526 119.998 92.4606 119.998 94.5086V99.5166H118.446V98.3806C117.838 99.2446 116.702 99.7086 115.694 99.7086C113.934 99.7086 112.638 98.6846 112.638 97.0686C112.638 95.4206 114.126 94.3166 115.95 94.3166C116.766 94.3166 117.646 94.4926 118.446 94.7646V94.5086C118.446 93.4686 117.966 92.3646 116.318 92.3646C115.502 92.3646 114.702 92.6846 113.982 93.0526L113.406 91.8846C114.59 91.2926 115.63 91.0526 116.542 91.0526ZM115.998 98.4606C117.022 98.4606 118.174 97.9486 118.446 96.9246V95.8206C117.774 95.6126 117.006 95.5006 116.19 95.5006C115.086 95.5006 114.158 96.1246 114.158 97.0206C114.158 97.9166 114.958 98.4606 115.998 98.4606ZM122.289 99.5166V88.3326H123.857V99.5166H122.289Z" fill="black"/>
</g>
<defs>
<filter id="filter0_d_1762_4983" x="0.558594" y="0.589844" width="243.559" height="141.095" filterUnits="userSpaceOnUse" color-interpolation-filters="sRGB">
<feFlood flood-opacity="0" result="BackgroundImageFix"/>
<feColorMatrix in="SourceAlpha" type="matrix" values="0 0 0 0 0 0 0 0 0 0 0 0 0 0 0 0 0 0 127 0" result="hardAlpha"/>
<feOffset/>
<feGaussianBlur stdDeviation="1.5"/>
<feComposite in2="hardAlpha" operator="out"/>
<feColorMatrix type="matrix" values="0 0 0 0 0 0 0 0 0 0 0 0 0 0 0 0 0 0 0.1 0"/>
<feBlend mode="normal" in2="BackgroundImageFix" result="effect1_dropShadow_1762_4983"/>
<feBlend mode="normal" in="SourceGraphic" in2="effect1_dropShadow_1762_4983" result="shape"/>
</filter>
<clipPath id="clip0_1762_4983">
<rect width="40" height="40" fill="white" transform="translate(33.5586 28.5166)"/>
</clipPath>
</defs>
</svg>
