<svg width="244" height="142" viewBox="0 0 244 142" fill="none" xmlns="http://www.w3.org/2000/svg">
<g filter="url(#filter0_d_1762_5010)">
<rect x="3.11719" y="3.58984" width="237.558" height="135.095" rx="11.7474" fill="white"/>
<path d="M70.4452 35.2939V57.7707C70.4452 58.8753 69.5497 59.7707 68.4452 59.7707H35.7891C34.6845 59.7707 33.7891 58.8753 33.7891 57.7707V35.2939C33.7891 34.0368 34.8087 33.0171 36.0667 33.0171H68.1676C69.4255 33.0171 70.4452 34.0368 70.4452 35.2939Z" fill="#D7FFFC"/>
<path d="M67.6289 35.8335V54.7658H36.6067V35.8335H67.6289Z" fill="#6DC5BE"/>
<path d="M61.0152 35.314V38.7143C61.0152 40.7448 59.8023 42.5887 57.9263 43.3677C54.2129 44.9114 50.023 44.9114 46.3096 43.3677C44.4336 42.5887 43.2207 40.7448 43.2207 38.7143V35.314H61.0152Z" fill="#39968E"/>
<path d="M54.4484 44.3447C51.7184 44.7697 48.8976 44.4446 46.3077 43.3677C44.4316 42.5887 43.2188 40.7448 43.2188 38.7143V35.314H47.8827V38.7143C47.8827 40.7448 49.0955 42.5887 50.9716 43.3677C52.0959 43.8353 53.2637 44.1612 54.4484 44.3447Z" fill="#39968E"/>
<path d="M61.0151 35.314V36.6773L53.7323 40.5356C52.7223 41.07 51.5134 41.07 50.5034 40.5356L43.2207 36.6773V35.314H61.0151Z" fill="#287B74"/>
<path d="M65.4034 29.7222L53.7313 23.5389C52.7216 23.004 51.5126 23.004 50.5028 23.5389L38.8307 29.7222C37.52 30.4165 37.52 32.2942 38.8307 32.9885L50.5028 39.1719C51.5125 39.7068 52.7215 39.7068 53.7313 39.1719L65.4034 32.9885C66.7141 32.2942 66.7141 30.4165 65.4034 29.7222Z" fill="#40A39B"/>
<path d="M57.3099 45.7829C57.0433 45.7829 56.8271 45.5667 56.8271 45.3V37.4582L51.7546 31.6739C51.5788 31.4733 51.5988 31.1682 51.7992 30.9924C51.9996 30.8165 52.3049 30.8366 52.4807 31.0371L57.6731 36.9581C57.7503 37.0462 57.7929 37.1593 57.7929 37.2764V45.3C57.7928 45.5668 57.5767 45.7829 57.3099 45.7829Z" fill="#EBBE49"/>
<path d="M56.6226 45.4099L55.6553 47.0852C55.0586 48.1187 55.8045 49.4106 56.9979 49.4106H57.6198C58.8131 49.4106 59.559 48.1187 58.9624 47.0852L57.9951 45.4099C57.6901 44.8816 56.9276 44.8816 56.6226 45.4099Z" fill="#EBBE49"/>
<path d="M51.6954 52.5529H39.6114C39.278 52.5529 39.0078 52.2827 39.0078 51.9493C39.0078 51.6159 39.278 51.3457 39.6114 51.3457H51.6953C52.0287 51.3457 52.2989 51.6159 52.2989 51.9493C52.2989 52.2827 52.0288 52.5529 51.6954 52.5529Z" fill="#40A39B"/>
<path d="M47.6909 50.0143H39.6114C39.278 50.0143 39.0078 49.7441 39.0078 49.4107C39.0078 49.0774 39.278 48.8071 39.6114 48.8071H47.6909C48.0243 48.8071 48.2945 49.0774 48.2945 49.4107C48.2945 49.7441 48.0243 50.0143 47.6909 50.0143Z" fill="#40A39B"/>
<path d="M33.1059 113.685V105.397L31.4259 106.489L30.9499 105.677L33.3159 104.067H34.1979V113.685H33.1059ZM40.3515 113.853C37.9995 113.853 36.3475 111.795 36.3475 108.869C36.3475 105.957 37.9995 103.899 40.3515 103.899C42.6895 103.899 44.3415 105.957 44.3415 108.869C44.3415 111.795 42.6895 113.853 40.3515 113.853ZM40.3515 112.845C42.0455 112.845 43.2355 111.193 43.2355 108.869C43.2355 106.545 42.0455 104.907 40.3515 104.907C38.6575 104.907 37.4535 106.545 37.4535 108.869C37.4535 111.193 38.6575 112.845 40.3515 112.845ZM50.0038 113.853C47.6518 113.853 45.9998 111.795 45.9998 108.869C45.9998 105.957 47.6518 103.899 50.0038 103.899C52.3418 103.899 53.9938 105.957 53.9938 108.869C53.9938 111.795 52.3418 113.853 50.0038 113.853ZM50.0038 112.845C51.6978 112.845 52.8878 111.193 52.8878 108.869C52.8878 106.545 51.6978 104.907 50.0038 104.907C48.3098 104.907 47.1058 106.545 47.1058 108.869C47.1058 111.193 48.3098 112.845 50.0038 112.845ZM62.1902 108.491V109.527H59.5022V112.215H58.4522V109.527H55.7642V108.491H58.4522V105.789H59.5022V108.491H62.1902ZM71.0495 113.685V105.103H67.8155V104.067H75.3755V105.103H72.1415V113.685H71.0495ZM82.1639 106.447H83.2139V113.685H82.1639V112.523C81.7439 113.293 80.8059 113.853 79.7839 113.853C78.1879 113.853 77.0679 112.691 77.0679 111.053V106.447H78.1179V110.913C78.1179 112.089 78.8599 112.915 79.9239 112.915C81.1419 112.915 82.1639 112.061 82.1639 111.053V106.447ZM88.5311 112.621L89.0491 113.391C88.6711 113.685 88.1951 113.853 87.7051 113.853C86.6691 113.853 85.9411 113.083 85.9411 112.005V107.385H84.8071V106.447H85.9411V104.459H86.9911V106.447H88.7691V107.385H86.9911V112.005C86.9911 112.537 87.3551 112.915 87.7751 112.915C88.0971 112.915 88.3771 112.789 88.5311 112.621ZM93.8947 113.853C91.8647 113.853 90.1427 112.117 90.1427 110.059C90.1427 108.001 91.8647 106.279 93.8947 106.279C95.9247 106.279 97.6327 108.001 97.6327 110.059C97.6327 112.117 95.9247 113.853 93.8947 113.853ZM93.8947 112.915C95.3227 112.915 96.5267 111.613 96.5267 110.059C96.5267 108.519 95.3227 107.217 93.8947 107.217C92.4527 107.217 91.2487 108.519 91.2487 110.059C91.2487 111.613 92.4527 112.915 93.8947 112.915ZM100.515 107.861C100.949 106.895 101.985 106.279 103.315 106.279V107.217C101.677 107.217 100.515 108.225 100.515 109.639V113.685H99.4647V106.447H100.515V107.861ZM107.329 113.853C106.321 113.853 105.201 113.475 104.333 112.775L104.879 112.005C105.705 112.607 106.531 112.915 107.329 112.915C108.281 112.915 108.925 112.467 108.925 111.781C108.925 110.997 108.085 110.745 107.105 110.465C105.355 109.961 104.683 109.443 104.683 108.407C104.683 107.091 105.775 106.279 107.217 106.279C108.113 106.279 109.037 106.587 109.807 107.091L109.303 107.903C108.575 107.441 107.861 107.217 107.217 107.217C106.405 107.217 105.733 107.581 105.733 108.281C105.733 108.911 106.265 109.107 107.609 109.541C108.771 109.905 109.975 110.297 109.975 111.669C109.975 112.999 108.827 113.853 107.329 113.853Z" fill="#40A39B"/>
<path d="M39.9732 93.6846L39.0132 91.4446H33.2852L32.3252 93.6846H30.5332L35.2532 82.6926H37.0452L41.7652 93.6846H39.9732ZM33.9092 89.9886H38.3892L36.1492 84.7726L33.9092 89.9886ZM43.3317 93.6846V82.5006H44.8997V93.6846H43.3317ZM47.2067 93.6846V82.5006H48.7747V93.6846H47.2067ZM60.9878 93.8766C57.8998 93.8766 55.2758 91.2686 55.2758 88.1806C55.2758 85.0926 57.8998 82.5006 60.9878 82.5006C62.5558 82.5006 63.9958 83.1566 65.0358 84.2286L63.8998 85.3166C63.1638 84.5166 62.1238 83.9886 60.9878 83.9886C58.7958 83.9886 56.9398 85.9086 56.9398 88.1806C56.9398 90.4686 58.7958 92.3886 60.9878 92.3886C62.1238 92.3886 63.1638 91.8606 63.8998 91.0606L65.0358 92.1486C63.9958 93.2046 62.5558 93.8766 60.9878 93.8766ZM70.5329 93.8766C68.1649 93.8766 66.1649 91.8926 66.1649 89.5406C66.1649 87.1886 68.1649 85.2206 70.5329 85.2206C72.8849 85.2206 74.8689 87.1886 74.8689 89.5406C74.8689 91.8926 72.8849 93.8766 70.5329 93.8766ZM70.5329 92.5006C72.0209 92.5006 73.2849 91.1566 73.2849 89.5406C73.2849 87.9406 72.0209 86.5966 70.5329 86.5966C69.0129 86.5966 67.7489 87.9406 67.7489 89.5406C67.7489 91.1566 69.0129 92.5006 70.5329 92.5006ZM82.4183 85.4126H84.0023V93.6846H82.4183V92.4846C81.9223 93.3006 80.9143 93.8766 79.7943 93.8766C77.9703 93.8766 76.6903 92.5486 76.6903 90.6766V85.4126H78.2423V90.4046C78.2423 91.6366 79.0263 92.5006 80.1463 92.5006C81.2983 92.5006 82.2903 91.7486 82.4183 90.7726V85.4126ZM87.9644 86.9966C88.4924 85.9086 89.6124 85.2206 91.0364 85.2206V86.5966C89.3244 86.5966 88.1084 87.5406 87.9644 88.9806V93.6846H86.3804V85.4126H87.9644V86.9966ZM95.5737 93.8766C94.3577 93.8766 93.0297 93.4446 92.0377 92.6446L92.7897 91.5086C93.6697 92.1486 94.6137 92.5166 95.5897 92.5166C96.5177 92.5166 97.1577 92.0846 97.1577 91.4446C97.1577 90.6766 96.3097 90.4366 95.2857 90.1486C93.3817 89.6206 92.4377 89.0766 92.4377 87.7326C92.4217 86.2126 93.6857 85.2206 95.4457 85.2206C96.5177 85.2206 97.6057 85.5886 98.5017 86.1806L97.7977 87.3486C96.9977 86.8526 96.1657 86.5806 95.4457 86.5806C94.6297 86.5806 93.9897 86.9326 93.9897 87.5566C93.9897 88.1966 94.5017 88.3886 95.8937 88.8206C97.2537 89.2206 98.7097 89.6686 98.7097 91.3166C98.7097 92.8846 97.3817 93.8766 95.5737 93.8766ZM104.342 92.4686C105.206 92.4686 106.214 92.0846 106.71 91.5726L107.702 92.5966C106.966 93.3806 105.526 93.8766 104.358 93.8766C102.054 93.8766 100.102 92.0686 100.102 89.5246C100.102 87.0446 101.942 85.2206 104.23 85.2206C106.758 85.2206 108.214 87.1406 108.214 90.1006H101.702C101.91 91.4766 102.918 92.4686 104.342 92.4686ZM104.294 86.6286C103.014 86.6286 101.974 87.4926 101.718 88.8366H106.678C106.502 87.5566 105.718 86.6286 104.294 86.6286ZM113.042 93.8766C111.826 93.8766 110.498 93.4446 109.506 92.6446L110.258 91.5086C111.138 92.1486 112.082 92.5166 113.058 92.5166C113.986 92.5166 114.626 92.0846 114.626 91.4446C114.626 90.6766 113.778 90.4366 112.754 90.1486C110.85 89.6206 109.906 89.0766 109.906 87.7326C109.89 86.2126 111.154 85.2206 112.914 85.2206C113.986 85.2206 115.074 85.5886 115.97 86.1806L115.266 87.3486C114.466 86.8526 113.634 86.5806 112.914 86.5806C112.098 86.5806 111.458 86.9326 111.458 87.5566C111.458 88.1966 111.97 88.3886 113.362 88.8206C114.722 89.2206 116.178 89.6686 116.178 91.3166C116.178 92.8846 114.85 93.8766 113.042 93.8766Z" fill="black"/>
</g>
<defs>
<filter id="filter0_d_1762_5010" x="0.117188" y="0.589844" width="243.559" height="141.095" filterUnits="userSpaceOnUse" color-interpolation-filters="sRGB">
<feFlood flood-opacity="0" result="BackgroundImageFix"/>
<feColorMatrix in="SourceAlpha" type="matrix" values="0 0 0 0 0 0 0 0 0 0 0 0 0 0 0 0 0 0 127 0" result="hardAlpha"/>
<feOffset/>
<feGaussianBlur stdDeviation="1.5"/>
<feComposite in2="hardAlpha" operator="out"/>
<feColorMatrix type="matrix" values="0 0 0 0 0 0 0 0 0 0 0 0 0 0 0 0 0 0 0.1 0"/>
<feBlend mode="normal" in2="BackgroundImageFix" result="effect1_dropShadow_1762_5010"/>
<feBlend mode="normal" in="SourceGraphic" in2="effect1_dropShadow_1762_5010" result="shape"/>
</filter>
</defs>
</svg>
