<svg width="65" height="64" viewBox="0 0 65 64" fill="none" xmlns="http://www.w3.org/2000/svg">
<path d="M44.2721 26.4824C46.1436 26.9382 47.5012 28.5091 47.7145 30.4194H62.2599V26.8994C62.2599 25.2994 60.9509 23.9903 59.3509 23.9903H34.0806L44.2721 26.4824Z" fill="#40A39B"/>
<path d="M54.958 44.4024H57.4307V46.8751H54.958V44.4024Z" fill="#40A39B"/>
<path d="M18.9145 32.0485C19.3703 32.2036 19.8357 32.3297 20.3109 32.4461C20.3303 32.4461 20.3496 32.4558 20.369 32.4558C21.3193 32.6691 22.3181 32.8048 23.3557 32.863C23.4139 32.863 23.4721 32.8727 23.5303 32.8727C24.0442 32.9018 24.5678 32.9018 25.1012 32.8921L43.089 33.5321C43.2636 33.5418 43.4284 33.5321 43.5933 33.503C43.6999 33.4836 43.7969 33.4545 43.9036 33.4255C43.9715 33.4061 44.0296 33.3964 44.0975 33.3673C44.1751 33.3382 44.2527 33.2994 44.3302 33.2606C44.4175 33.2218 44.4951 33.183 44.5727 33.1248C44.6309 33.0861 44.6793 33.0473 44.7375 33.0085C44.8345 32.9406 44.9218 32.863 45.009 32.7855L45.1254 32.6691C45.203 32.5818 45.2709 32.4945 45.329 32.4073C45.3678 32.3491 45.4163 32.2909 45.4454 32.2327C45.4842 32.1648 45.5133 32.0873 45.5521 32.0194C45.5909 31.9321 45.6393 31.8448 45.6684 31.7479C45.6781 31.7285 45.6781 31.7091 45.6781 31.6994C45.7266 31.5539 45.7557 31.4085 45.7751 31.263V31.2533C45.7945 31.0788 45.8042 30.9042 45.7945 30.7297C45.7169 29.5855 44.9121 28.6448 43.8066 28.3733L25.8284 23.9709C25.809 23.9709 25.7993 23.9612 25.7799 23.9612L23.8793 23.4958C23.3557 23.3697 23.0357 22.8461 23.1715 22.3224C23.2975 21.7988 23.8309 21.4885 24.3448 21.6145L26.1581 22.0606H46.4054C42.129 18.5988 38.3278 15.9612 34.8369 14.0412C33.7896 13.4594 32.5969 13.1588 31.3751 13.1588H17.4503C16.5678 13.1588 15.7145 12.9842 14.9193 12.6254L8.45147 9.77454C8.11208 9.61939 7.7145 9.76484 7.54965 10.1042L2.81753 19.8012C2.73026 19.9854 2.72056 20.1794 2.78844 20.3636C2.85632 20.5479 2.99208 20.6836 3.17632 20.7612L7.54965 22.5648C9.04298 23.1855 10.3133 24.2812 11.2248 25.7454C13.1836 28.8873 15.7339 30.9721 18.8951 32.0485C18.9048 32.0388 18.9048 32.0388 18.9145 32.0485Z" fill="#40A39B"/>
<path d="M19.574 36.6254H62.26V32.3588H47.5109C47.5012 32.3782 47.4916 32.3976 47.4916 32.417C47.4722 32.4848 47.4334 32.5527 47.4043 32.6206C47.317 32.8339 47.22 33.0376 47.1037 33.2412C47.0649 33.2994 47.0358 33.3576 46.997 33.4157C46.8516 33.6388 46.6867 33.8521 46.5122 34.0364C46.5025 34.0557 46.4928 34.0654 46.4734 34.0848C46.4637 34.0945 46.4637 34.0945 46.454 34.1042C46.2406 34.3273 46.0079 34.5212 45.7558 34.6957C45.7267 34.7151 45.6976 34.7248 45.6685 34.7442C45.4649 34.88 45.2515 34.9867 45.0285 35.0836C45.0091 35.0933 44.9897 35.1127 44.9606 35.1127C44.8831 35.1418 44.8055 35.1709 44.7279 35.1903C44.5728 35.2485 44.4079 35.297 44.2431 35.3357C44.1849 35.3454 44.1267 35.3745 44.0685 35.3842C44.0103 35.3939 43.9425 35.4036 43.8746 35.4133C43.7194 35.4327 43.5546 35.4424 43.3897 35.4521C43.3219 35.4521 43.254 35.4715 43.1861 35.4715C43.1279 35.4715 43.0794 35.4715 43.0212 35.4715L25.0916 34.8315C24.6164 34.8412 24.1509 34.8412 23.6855 34.8218C23.6273 34.8218 23.5788 34.8121 23.5206 34.8121C23.1134 34.7927 22.7158 34.7636 22.3279 34.7248C22.2503 34.7151 22.1825 34.7054 22.1049 34.6957C21.7364 34.657 21.3776 34.6085 21.0188 34.5503C20.9219 34.5309 20.8249 34.5212 20.7376 34.5018C20.4079 34.4436 20.0879 34.3757 19.7776 34.2982C19.7097 34.2788 19.6419 34.2691 19.574 34.2594V36.6254Z" fill="#40A39B"/>
<path d="M19.574 38.5648V51.3745C19.574 52.9745 20.8831 54.2836 22.4831 54.2836H59.3509C60.9509 54.2836 62.26 52.9745 62.26 51.3745V38.5648H19.574ZM35.9328 48.8145H24.1025C23.5691 48.8145 23.1328 48.3782 23.1328 47.8448C23.1328 47.3115 23.5691 46.8752 24.1025 46.8752H35.9231C36.4564 46.8752 36.8928 47.3115 36.8928 47.8448C36.8928 48.3782 36.4661 48.8145 35.9328 48.8145ZM35.9328 44.4024H24.1025C23.5691 44.4024 23.1328 43.9661 23.1328 43.4327C23.1328 42.8994 23.5691 42.463 24.1025 42.463H35.9231C36.4564 42.463 36.8928 42.8994 36.8928 43.4327C36.8928 43.9661 36.4661 44.4024 35.9328 44.4024ZM59.3703 47.8448C59.3703 48.3782 58.934 48.8145 58.4006 48.8145H53.9885C53.4552 48.8145 53.0188 48.3782 53.0188 47.8448V43.4327C53.0188 42.8994 53.4552 42.463 53.9885 42.463H58.4006C58.934 42.463 59.3703 42.8994 59.3703 43.4327V47.8448Z" fill="#40A39B"/>
</svg>
