<svg width="63" height="64" viewBox="0 0 63 64" fill="none" xmlns="http://www.w3.org/2000/svg">
<path d="M53.8125 22H44.625V30C44.625 35.1467 40.5038 39.3333 35.4375 39.3333H24.9375V42C24.9375 45.676 27.8815 48.6667 31.5 48.6667H41.4566L48.9471 56.276C49.1984 56.5313 49.5331 56.6667 49.875 56.6667C50.0443 56.6667 50.215 56.6333 50.3777 56.5653C50.8679 56.3587 51.1875 55.8727 51.1875 55.3333V48.6667H53.8125C57.4311 48.6667 60.375 45.676 60.375 42V28.6667C60.375 24.9907 57.4311 22 53.8125 22ZM51.1875 42H43.3125C42.588 42 42 41.4027 42 40.6667C42 39.9307 42.588 39.3333 43.3125 39.3333H51.1875C51.912 39.3333 52.5 39.9307 52.5 40.6667C52.5 41.4027 51.912 42 51.1875 42ZM51.1875 36.6667H47.25C46.5255 36.6667 45.9375 36.0693 45.9375 35.3333C45.9375 34.5973 46.5255 34 47.25 34H51.1875C51.912 34 52.5 34.5973 52.5 35.3333C52.5 36.0693 51.912 36.6667 51.1875 36.6667ZM51.1875 31.3333H48.5625C47.838 31.3333 47.25 30.736 47.25 30C47.25 29.264 47.838 28.6667 48.5625 28.6667H51.1875C51.912 28.6667 52.5 29.264 52.5 30C52.5 30.736 51.912 31.3333 51.1875 31.3333ZM35.4375 7.33333H9.1875C5.56894 7.33333 2.625 10.324 2.625 14V30C2.625 33.676 5.56894 36.6667 9.1875 36.6667H11.8125V44.6667C11.8125 45.206 12.1321 45.692 12.6223 45.8987C12.7851 45.9667 12.9557 46 13.125 46C13.4669 46 13.8016 45.8647 14.0529 45.6093L22.8559 36.6667H35.4375C39.0561 36.6667 42 33.676 42 30V14C42 10.324 39.0561 7.33333 35.4375 7.33333ZM32.8125 28.6667H11.8125C11.088 28.6667 10.5 28.0693 10.5 27.3333C10.5 26.5973 11.088 26 11.8125 26H32.8125C33.537 26 34.125 26.5973 34.125 27.3333C34.125 28.0693 33.537 28.6667 32.8125 28.6667ZM32.8125 23.3333H11.8125C11.088 23.3333 10.5 22.736 10.5 22C10.5 21.264 11.088 20.6667 11.8125 20.6667H32.8125C33.537 20.6667 34.125 21.264 34.125 22C34.125 22.736 33.537 23.3333 32.8125 23.3333ZM32.8125 18H11.8125C11.088 18 10.5 17.4027 10.5 16.6667C10.5 15.9307 11.088 15.3333 11.8125 15.3333H32.8125C33.537 15.3333 34.125 15.9307 34.125 16.6667C34.125 17.4027 33.537 18 32.8125 18Z" fill="#40A39B"/>
</svg>
