<svg width="65" height="64" viewBox="0 0 65 64" fill="none" xmlns="http://www.w3.org/2000/svg">
<path d="M40.5665 45.7434L39.3333 46.3942L39.3365 44.9997L40.5665 45.7434Z" fill="#40A39B"/>
<path d="M59.9516 19.2826L53.7397 15.5302C54.2994 14.8503 55.085 14.3944 55.9531 14.2459C56.8211 14.0975 57.7136 14.2664 58.4674 14.7217C59.2212 15.177 59.786 15.8884 60.0585 16.7259C60.331 17.5633 60.293 18.4708 59.9516 19.2826Z" fill="#40A39B"/>
<path d="M44.9249 43.4413L42.5537 44.6944L42.5243 44.7091L41.6609 45.1648L39.3384 43.7619L39.3448 40.0704L44.9249 43.4413Z" fill="#40A39B"/>
<path d="M53.1579 16.4173L46.4417 27.5341L46.4155 27.577L43.243 32.832L43.2168 32.8755L39.5444 38.9555L45.8222 42.7475L59.4363 20.2093L53.1579 16.4173ZM55.7006 20.3245L44.1563 39.4355C44.1089 39.5136 44.0422 39.5782 43.9626 39.623C43.883 39.6679 43.7932 39.6915 43.7019 39.6915C43.6083 39.6909 43.5165 39.6654 43.436 39.6178C43.3554 39.5702 43.2889 39.5021 43.2432 39.4204C43.1975 39.3388 43.1742 39.2465 43.1757 39.1529C43.1773 39.0593 43.2036 38.9678 43.252 38.8877L54.7937 19.776C54.8664 19.6557 54.984 19.5693 55.1204 19.5357C55.2569 19.5021 55.4011 19.5241 55.5214 19.5968C55.6417 19.6695 55.7281 19.7871 55.7617 19.9235C55.7953 20.06 55.7733 20.2042 55.7006 20.3245Z" fill="#40A39B"/>
<path d="M43.3076 30.6733V9.44001C43.3071 9.20893 43.215 8.98748 43.0514 8.8242C42.8879 8.66092 42.6663 8.56914 42.4353 8.56897H7.77094C7.54008 8.56947 7.31882 8.66141 7.15558 8.82465C6.99234 8.98789 6.90041 9.20915 6.8999 9.44001V54.56C6.90007 54.7913 6.99203 55.0131 7.15558 55.1766C7.31914 55.3402 7.54092 55.4322 7.77222 55.4323H42.4353C42.6665 55.432 42.8882 55.34 43.0517 55.1765C43.2152 55.0129 43.3072 54.7913 43.3076 54.56V45.4944L45.4458 44.3648V54.56C45.4441 55.3573 45.1267 56.1214 44.5629 56.6851C43.9992 57.2489 43.2351 57.5663 42.4378 57.568H7.77094C6.97374 57.5662 6.20972 57.2486 5.64602 56.6849C5.08231 56.1212 4.7648 55.3572 4.76294 54.56V9.44001C4.7648 8.64225 5.08275 7.87775 5.64715 7.31396C6.21155 6.75016 6.97639 6.43302 7.77414 6.43201H42.4353C43.2325 6.4337 43.9966 6.75115 44.5604 7.3149C45.1241 7.87864 45.4416 8.64276 45.4433 9.44001V27.136L43.3076 30.6733Z" fill="#40A39B"/>
<path d="M38.2779 44.0557L38.2868 39.1315C38.287 39.0963 38.2906 39.0611 38.2977 39.0266C38.3016 39.0032 38.3078 38.9802 38.3163 38.9581C38.3285 38.9233 38.3442 38.8899 38.363 38.8582L42.2472 32.4282V9.6288H7.9585V54.3725H42.2472V46.0525L41.8996 46.2362C41.89 46.2419 41.8798 46.2464 41.8702 46.2515L39.0497 47.744C38.9688 47.7868 38.8782 47.8079 38.7867 47.8052C38.6953 47.8026 38.606 47.7763 38.5277 47.7289C38.4494 47.6816 38.3847 47.6147 38.3399 47.5349C38.2951 47.4551 38.2718 47.3651 38.2721 47.2736L38.2779 44.0659V44.0557ZM35.6999 47.808H14.5031C14.3657 47.8032 14.2355 47.7453 14.1399 47.6463C14.0444 47.5474 13.991 47.4153 13.991 47.2778C13.991 47.1402 14.0444 47.0081 14.1399 46.9092C14.2355 46.8102 14.3657 46.7523 14.5031 46.7475H35.6999C35.8374 46.7523 35.9676 46.8102 36.0631 46.9092C36.1587 47.0081 36.2121 47.1402 36.2121 47.2778C36.2121 47.4153 36.1587 47.5474 36.0631 47.6463C35.9676 47.7453 35.8374 47.8032 35.6999 47.808ZM35.6999 37.6243H14.5031C14.4335 37.6243 14.3646 37.6106 14.3003 37.584C14.2361 37.5573 14.1776 37.5183 14.1284 37.4691C14.0792 37.4199 14.0402 37.3615 14.0136 37.2972C13.9869 37.2329 13.9732 37.164 13.9732 37.0944C13.9732 37.0248 13.9869 36.9559 14.0136 36.8916C14.0402 36.8273 14.0792 36.7689 14.1284 36.7197C14.1776 36.6705 14.2361 36.6314 14.3003 36.6048C14.3646 36.5782 14.4335 36.5645 14.5031 36.5645H35.6999C35.7695 36.5645 35.8384 36.5782 35.9027 36.6048C35.967 36.6314 36.0254 36.6705 36.0747 36.7197C36.1239 36.7689 36.1629 36.8273 36.1895 36.8916C36.2162 36.9559 36.2299 37.0248 36.2299 37.0944C36.2299 37.164 36.2162 37.2329 36.1895 37.2972C36.1629 37.3615 36.1239 37.4199 36.0747 37.4691C36.0254 37.5183 35.967 37.5573 35.9027 37.584C35.8384 37.6106 35.7695 37.6243 35.6999 37.6243ZM35.6999 27.4419H14.5031C14.3626 27.4419 14.2278 27.3861 14.1284 27.2867C14.029 27.1873 13.9732 27.0525 13.9732 26.912C13.9732 26.7715 14.029 26.6367 14.1284 26.5373C14.2278 26.4379 14.3626 26.3821 14.5031 26.3821H35.6999C35.8405 26.3821 35.9753 26.4379 36.0747 26.5373C36.174 26.6367 36.2299 26.7715 36.2299 26.912C36.2299 27.0525 36.174 27.1873 36.0747 27.2867C35.9753 27.3861 35.8405 27.4419 35.6999 27.4419ZM35.6999 17.2589H14.5031C14.3657 17.2541 14.2355 17.1961 14.1399 17.0972C14.0444 16.9983 13.991 16.8662 13.991 16.7286C13.991 16.5911 14.0444 16.459 14.1399 16.36C14.2355 16.2611 14.3657 16.2032 14.5031 16.1984H35.6999C35.8374 16.2032 35.9676 16.2611 36.0631 16.36C36.1587 16.459 36.2121 16.5911 36.2121 16.7286C36.2121 16.8662 36.1587 16.9983 36.0631 17.0972C35.9676 17.1961 35.8374 17.2541 35.6999 17.2589Z" fill="#40A39B"/>
</svg>
