<svg width="36" height="36" viewBox="0 0 36 36" fill="none" xmlns="http://www.w3.org/2000/svg">
<path d="M8.71009 0.580627C4.22058 0.580627 0.581055 4.22015 0.581055 8.70966C0.581055 13.1992 4.22058 16.8387 8.71009 16.8387C13.1996 16.8387 16.8391 13.1992 16.8391 8.70966C16.8391 4.22015 13.1996 0.580627 8.71009 0.580627Z" fill="#40A39B"/>
<path d="M27.2902 19.1613C22.8007 19.1613 19.1611 22.8008 19.1611 27.2903C19.1611 31.7799 22.8007 35.4194 27.2902 35.4194C31.7797 35.4194 35.4192 31.7799 35.4192 27.2903C35.4192 22.8008 31.7797 19.1613 27.2902 19.1613ZM27.2902 23.8065C27.6108 23.8065 27.8708 24.0665 27.8708 24.3871C27.8708 24.7078 27.6108 24.9678 27.2902 24.9678C26.9695 24.9678 26.7095 24.7078 26.7095 24.3871C26.7095 24.0665 26.9695 23.8065 27.2902 23.8065ZM27.2902 30.7742C26.9695 30.7742 26.7095 30.5142 26.7095 30.1936C26.7095 29.8729 26.9695 29.6129 27.2902 29.6129C27.6108 29.6129 27.8708 29.8729 27.8708 30.1936C27.8708 30.5142 27.6108 30.7742 27.2902 30.7742Z" fill="#40A39B"/>
<path d="M27.8713 24.3871C27.8713 24.7078 27.6113 24.9677 27.2906 24.9677C26.9699 24.9677 26.71 24.7078 26.71 24.3871C26.71 24.0664 26.9699 23.8065 27.2906 23.8065C27.6113 23.8065 27.8713 24.0664 27.8713 24.3871Z" fill="#57A4FF"/>
<path d="M27.8713 30.1936C27.8713 30.5142 27.6113 30.7742 27.2906 30.7742C26.9699 30.7742 26.71 30.5142 26.71 30.1936C26.71 29.8729 26.9699 29.6129 27.2906 29.6129C27.6113 29.6129 27.8713 29.8729 27.8713 30.1936Z" fill="#57A4FF"/>
<path d="M8.70968 0C3.89951 0 0 3.89951 0 8.70968C0 13.5198 3.89951 17.4194 8.70968 17.4194C13.5198 17.4194 17.4194 13.5198 17.4194 8.70968C17.414 3.90178 13.5176 0.00538685 8.70968 0ZM8.70968 16.2581C4.54083 16.2581 1.16129 12.8785 1.16129 8.70968C1.16129 4.54083 4.54083 1.16129 8.70968 1.16129C12.8785 1.16129 16.2581 4.54083 16.2581 8.70968C16.2532 12.8765 12.8765 16.2532 8.70968 16.2581Z" fill="#40A39B"/>
<path d="M13.3544 8.12905H9.28985V4.06453C9.28985 3.74387 9.02986 3.48389 8.70921 3.48389C8.38855 3.48389 8.12856 3.74387 8.12856 4.06453V8.12905H4.06404C3.74338 8.12905 3.4834 8.38903 3.4834 8.70969C3.4834 9.03035 3.74338 9.29034 4.06404 9.29034H8.12856V13.3549C8.12856 13.6755 8.38855 13.9355 8.70921 13.9355C9.02986 13.9355 9.28985 13.6755 9.28985 13.3549V9.29034H13.3544C13.675 9.29034 13.935 9.03035 13.935 8.70969C13.935 8.38903 13.675 8.12905 13.3544 8.12905Z" fill="white"/>
<path d="M8.70968 18.5806C3.89951 18.5806 0 22.4801 0 27.2903C0 32.1005 3.89951 36 8.70968 36C13.5198 36 17.4194 32.1005 17.4194 27.2903C17.414 22.4824 13.5176 18.586 8.70968 18.5806ZM8.70968 34.8387C4.54083 34.8387 1.16129 31.4592 1.16129 27.2903C1.16129 23.1215 4.54083 19.7419 8.70968 19.7419C12.8785 19.7419 16.2581 23.1215 16.2581 27.2903C16.2532 31.4572 12.8765 34.8339 8.70968 34.8387Z" fill="#40A39B"/>
<path d="M12.6037 23.3959C12.3769 23.1694 12.0095 23.1694 11.7827 23.3959L8.70932 26.4692L5.63598 23.3959C5.40803 23.1759 5.04598 23.179 4.822 23.403C4.59802 23.627 4.5949 23.989 4.81491 24.217L7.88825 27.2903L4.81491 30.3637C4.66408 30.5094 4.60341 30.7254 4.65671 30.9284C4.70972 31.1314 4.86821 31.2899 5.07121 31.3429C5.27421 31.3962 5.49025 31.3356 5.63598 31.1847L8.70932 28.1114L11.7827 31.1847C12.0106 31.4047 12.3727 31.4016 12.5966 31.1776C12.8206 30.9537 12.8237 30.5916 12.6037 30.3637L9.53038 27.2903L12.6037 24.217C12.8303 23.9902 12.8303 23.6227 12.6037 23.3959Z" fill="#EBBE49"/>
<path d="M27.2907 17.4194C32.1009 17.4194 36.0004 13.5198 36.0004 8.70968C36.0004 3.89951 32.1009 0 27.2907 0C22.4806 0 18.5811 3.89951 18.5811 8.70968C18.5864 13.5176 22.4828 17.414 27.2907 17.4194ZM27.2907 1.16129C31.4596 1.16129 34.8391 4.54083 34.8391 8.70968C34.8391 12.8785 31.4596 16.2581 27.2907 16.2581C23.1219 16.2581 19.7423 12.8785 19.7423 8.70968C19.7472 4.54281 23.1239 1.16611 27.2907 1.16129Z" fill="#40A39B"/>
<path d="M22.6451 9.29032H31.9354C32.2561 9.29032 32.5161 9.03033 32.5161 8.70967C32.5161 8.38901 32.2561 8.12903 31.9354 8.12903H22.6451C22.3244 8.12903 22.0645 8.38901 22.0645 8.70967C22.0645 9.03033 22.3244 9.29032 22.6451 9.29032Z" fill="#EBBE49"/>
<path d="M27.2907 18.5806C22.4806 18.5806 18.5811 22.4801 18.5811 27.2903C18.5811 32.1005 22.4806 36 27.2907 36C32.1009 36 36.0004 32.1005 36.0004 27.2903C35.995 22.4824 32.0986 18.586 27.2907 18.5806ZM27.2907 34.8387C23.1219 34.8387 19.7423 31.4592 19.7423 27.2903C19.7423 23.1215 23.1219 19.7419 27.2907 19.7419C31.4596 19.7419 34.8391 23.1215 34.8391 27.2903C34.8343 31.4572 31.4576 34.8339 27.2907 34.8387Z" fill="#40A39B"/>
<path d="M31.9354 26.7097H22.6451C22.3244 26.7097 22.0645 26.9696 22.0645 27.2903C22.0645 27.611 22.3244 27.8709 22.6451 27.8709H31.9354C32.2561 27.8709 32.5161 27.611 32.5161 27.2903C32.5161 26.9696 32.2561 26.7097 31.9354 26.7097Z" fill="white"/>
<path d="M28.4515 24.3871C28.4515 25.0284 27.9315 25.5484 27.2902 25.5484C26.6489 25.5484 26.1289 25.0284 26.1289 24.3871C26.1289 23.7458 26.6489 23.2258 27.2902 23.2258C27.9315 23.2258 28.4515 23.7458 28.4515 24.3871Z" fill="white"/>
<path d="M28.4515 30.1935C28.4515 30.8348 27.9315 31.3548 27.2902 31.3548C26.6489 31.3548 26.1289 30.8348 26.1289 30.1935C26.1289 29.5522 26.6489 29.0322 27.2902 29.0322C27.9315 29.0322 28.4515 29.5522 28.4515 30.1935Z" fill="white"/>
</svg>
