<svg width="39" height="36" viewBox="0 0 39 36" fill="none" xmlns="http://www.w3.org/2000/svg">
<path d="M24.2802 34.9835C24.1008 35.4619 23.6224 36.0001 23.0842 36.0001H9.27023C9.03103 36.0001 8.79183 35.8805 8.55262 35.7011C8.37322 35.5217 8.19382 35.2825 8.07422 35.0433H8.19382L16.1473 34.6247L24.1008 35.0433H24.2802V34.9835Z" fill="#EBBE49"/>
<path d="M23.144 33.4885H9.27029C9.15069 33.4885 9.03109 33.5483 8.91149 33.6679L8.13408 34.7443C8.01448 34.9237 8.13408 35.1629 8.31348 35.1629H23.9813C24.2205 35.1629 24.3401 34.9237 24.1607 34.7443L23.3833 33.6679C23.3833 33.6081 23.2637 33.4885 23.144 33.4885Z" fill="url(#paint0_linear_1175_1567)"/>
<path d="M18.2986 33.9668V29.9003H14.0527V33.9668C14.0527 34.7442 18.2986 34.7442 18.2986 33.9668Z" fill="#1D2943"/>
<path d="M28.7043 5.68109H3.46844C1.55482 5.68109 0 7.23591 0 9.20933V27.0897C0 29.0034 1.55482 30.5582 3.46844 30.5582H28.7043C30.6179 30.5582 32.1728 29.0034 32.1728 27.0897V9.20933C32.1728 7.23591 30.6179 5.68109 28.7043 5.68109Z" fill="#40A39B"/>
<path d="M3.46844 30.5581H28.7043C30.6179 30.5581 32.1728 29.0033 32.1728 27.0897V9.2093C32.1728 8.01329 31.5748 6.99667 30.6777 6.33887C27.2093 9.5681 11.4219 27.8073 0 26.7907V27.0299C0 29.0033 1.55482 30.5581 3.46844 30.5581Z" fill="#40A39B"/>
<path d="M27.9857 7.53485H4.185C2.86938 7.53485 1.79297 8.61126 1.79297 9.92688V25.176C1.79297 26.4917 2.86938 27.5681 4.185 27.5681H27.9857C29.3013 27.5681 30.3777 26.4917 30.3777 25.176V9.92688C30.3777 8.61126 29.3013 7.53485 27.9857 7.53485Z" fill="url(#paint1_linear_1175_1567)"/>
<path d="M4.18614 27.5083H27.9868C29.3024 27.5083 30.3788 26.4319 30.3788 25.1163V9.92695C30.3788 9.02994 29.8406 8.19273 29.123 7.83392C25.2958 18.4186 12.2592 25.9535 2.51172 26.7907C2.93032 27.2691 3.52833 27.5083 4.18614 27.5083Z" fill="url(#paint2_linear_1175_1567)"/>
<path d="M16.086 29.8406C16.5154 29.8406 16.8634 29.4925 16.8634 29.0632C16.8634 28.6338 16.5154 28.2858 16.086 28.2858C15.6567 28.2858 15.3086 28.6338 15.3086 29.0632C15.3086 29.4925 15.6567 29.8406 16.086 29.8406Z" fill="#EBBE49"/>
<g opacity="0.2">
<path d="M4.185 7.53485C2.86938 7.53485 1.79297 8.61126 1.79297 9.92688V16.2059L13.1551 27.5681H25.175L5.20161 7.53485H4.185Z" fill="white"/>
<path d="M30.3782 25.1162V19.8538L18.0592 7.53485H10.2852L29.6008 26.8505C30.0792 26.4319 30.3782 25.8339 30.3782 25.1162Z" fill="white"/>
</g>
<path d="M18.8986 12.3787C18.48 11.5415 17.5231 10.0465 15.9683 10.0465C15.9683 10.0465 15.9085 10.0465 15.8487 10.1063L15.7889 10.1661V10.7043C15.7889 10.7641 15.8487 10.8239 15.9085 10.8239C16.9849 10.8239 17.7025 11.8405 18.181 12.6777C19.8554 16.0266 19.7956 21.1694 18.0016 24.2193C16.9251 25.9535 15.3703 26.2525 14.1145 24.6977C12.7989 23.0233 12.3205 20.3322 12.2607 18.1794C12.2607 18.1196 12.2009 18.0598 12.1411 18.0598C12.0813 18.0598 12.0215 18.1196 12.0215 18.1794C12.0215 20.4518 12.4401 23.2027 13.8155 24.9369C15.2507 26.7907 17.2241 26.4319 18.4202 24.4585C20.4534 21.4086 20.6328 15.9668 18.8986 12.3787Z" fill="white"/>
<path d="M15.6698 11.6611C16.4955 11.6611 17.1648 10.9918 17.1648 10.1661C17.1648 9.34042 16.4955 8.67108 15.6698 8.67108C14.8441 8.67108 14.1748 9.34042 14.1748 10.1661C14.1748 10.9918 14.8441 11.6611 15.6698 11.6611Z" fill="#F34B58"/>
<path d="M16.2079 8.79071C16.3873 9.02991 16.5069 9.32892 16.5069 9.62792C16.5069 10.4651 15.849 11.1229 15.0118 11.1229C14.8324 11.1229 14.653 11.0631 14.4736 11.0033C14.7128 11.3621 15.1912 11.6013 15.6696 11.6013C16.5069 11.6013 17.1647 10.9435 17.1647 10.1063C17.1049 9.56812 16.7461 9.02991 16.2079 8.79071Z" fill="#E11226"/>
<path d="M18.9595 22.844C19.9163 22.9038 21.6505 22.7842 22.4279 21.4685C22.4279 21.4685 22.4279 21.4087 22.4279 21.3489C22.4279 21.2891 22.4279 21.2891 22.3681 21.2891L21.9495 20.9901C21.8897 20.9303 21.8299 20.9901 21.7701 21.0499C21.2319 21.947 19.9761 22.1264 19.0193 22.0666C15.3117 21.8872 10.8266 19.1961 9.09239 16.1463C8.07578 14.3523 8.61399 12.8573 10.6472 12.4985C11.604 12.3788 12.7402 12.4386 14.0558 12.7975C15.1323 13.0965 16.2087 13.5749 17.2253 14.1729C17.2851 14.2327 17.3449 14.1729 17.4047 14.1131C17.4645 14.0533 17.4047 13.9935 17.3449 13.9337C16.2685 13.2759 15.1921 12.7975 14.1156 12.4985C12.8 12.0798 11.604 11.9602 10.5874 12.0798C8.25518 12.3788 7.59738 14.2327 8.67379 16.3257C10.408 19.6745 15.0725 22.545 18.9595 22.844Z" fill="white"/>
<path d="M23.044 22.5228C23.8201 22.2421 24.2217 21.3854 23.941 20.6092C23.6603 19.8331 22.8035 19.4315 22.0274 19.7122C21.2513 19.9929 20.8496 20.8497 21.1304 21.6258C21.4111 22.402 22.2679 22.8036 23.044 22.5228Z" fill="#78E75A"/>
<path d="M22.7268 19.6147C22.966 19.7941 23.1454 20.0932 23.2052 20.3922C23.4444 21.1696 22.966 22.0068 22.1886 22.1862C22.0092 22.246 21.8298 22.246 21.6504 22.246C22.0092 22.545 22.4876 22.6646 22.966 22.545C23.7434 22.3058 24.2218 21.5284 23.9826 20.751C23.863 20.0932 23.3248 19.6745 22.7268 19.6147Z" fill="#72D561"/>
<path d="M10.1081 17.5814C9.56994 18.3588 8.79253 19.9136 9.51014 21.289L9.56994 21.3488H9.68954L10.1679 21.0498C10.2277 20.99 10.2277 20.9302 10.2277 20.8704C9.68954 19.9734 10.2277 18.7774 10.7061 17.9402C12.7394 14.8305 17.2842 12.2591 20.8125 12.3189C22.8457 12.3787 23.9221 13.5747 23.2045 15.4285C22.8457 16.3256 22.1879 17.2824 21.2311 18.1794C20.4537 18.9568 19.4968 19.6744 18.4802 20.2724C18.4204 20.3322 18.4204 20.392 18.4204 20.4518C18.4802 20.5116 18.54 20.5116 18.5998 20.5116C19.6762 19.9136 20.6331 19.196 21.4703 18.4186C22.4869 17.4618 23.2045 16.505 23.5633 15.5481C24.4603 13.3953 23.1447 11.8405 20.8723 11.7807C17.1646 11.7807 12.3208 14.3521 10.1081 17.5814Z" fill="white"/>
<path d="M11.1131 22.539C11.5759 21.8955 11.4077 20.983 10.7374 20.5009C10.067 20.0188 9.14847 20.1496 8.68565 20.7932C8.22284 21.4367 8.39105 22.3491 9.06137 22.8312C9.73168 23.3133 10.6503 23.1825 11.1131 22.539Z" fill="#FFD06C"/>
<path d="M10.7663 20.4518C11.2447 21.588 10.2879 22.7242 9.09192 22.4252C8.91252 22.3654 8.73311 22.3056 8.55371 22.186C8.73311 22.6046 9.09192 22.9634 9.63012 23.083C10.4673 23.3222 11.2447 22.8438 11.4241 22.0664C11.4839 21.4086 11.2447 20.8106 10.7663 20.4518Z" fill="#FEBC1F"/>
<path d="M17.6419 18.0598C17.6419 17.8206 17.5223 17.6412 17.2831 17.5216C17.2233 17.5216 17.1635 17.4618 17.1037 17.4618C17.1635 17.402 17.2831 17.3422 17.3429 17.2824C17.4625 17.103 17.4625 16.9236 17.4027 16.7442C17.3429 16.3256 16.9243 16.206 16.4458 16.1461V15.4883H16.0272V16.0863H15.7282V15.4883H15.3096V16.1461H14.5322V16.5648H14.891C15.0106 16.5648 15.0704 16.6844 15.0704 16.7442V18.4784C15.0704 18.598 15.0106 18.6578 14.9508 18.6578C14.9508 18.6578 14.7116 18.6578 14.592 18.6578V19.1362H15.3694V19.794H15.788V19.1362H16.087V19.794H16.5056V19.196C16.5056 19.1362 16.5056 19.1362 16.5655 19.1362C16.9841 19.1362 17.4625 19.0166 17.6419 18.598C17.6419 18.4186 17.6419 18.2392 17.6419 18.0598ZM15.788 16.6246C16.0272 16.6246 16.386 16.6246 16.5655 16.7442C16.7449 16.8638 16.7449 17.2226 16.5056 17.3422C16.386 17.3422 16.2664 17.402 16.1468 17.402C16.0272 17.402 15.9076 17.402 15.788 17.402C15.788 17.402 15.788 17.402 15.7282 17.402C15.788 17.103 15.788 16.8638 15.788 16.6246ZM16.6851 18.5382C16.5654 18.598 16.5056 18.598 16.386 18.6578C16.2066 18.7176 15.9674 18.6578 15.788 18.6578C15.788 18.3588 15.788 18.0598 15.788 17.8206H15.8478H16.386C16.5056 17.8206 16.6253 17.8804 16.6851 17.9402C16.9243 18.0598 16.9243 18.3588 16.6851 18.5382Z" fill="white"/>
<path d="M15.7888 17.402C15.7888 17.1628 15.7888 16.8638 15.7888 16.6246H15.9084C15.8486 16.6246 15.729 16.6246 15.6692 16.6246H15.6094V17.402H15.6692C15.6094 17.402 15.6692 17.402 15.7888 17.402Z" fill="#E9E7FC"/>
<path d="M15.5498 15.5482H15.789V16.1462H15.5498V15.5482Z" fill="#E9E7FC"/>
<path d="M15.5498 19.1362H15.789V19.794H15.5498V19.1362Z" fill="#E9E7FC"/>
<path d="M15.789 18.6578C15.789 18.3588 15.789 18.0598 15.789 17.8206H15.8488H15.9086C15.789 17.8206 15.7292 17.8206 15.6096 17.8206H15.5498V18.6578H15.8488H15.789Z" fill="#E9E7FC"/>
<path d="M17.2825 17.5216C17.2227 17.5216 17.1629 17.4618 17.1031 17.4618C17.1629 17.402 17.2825 17.3422 17.3423 17.2824C17.4619 17.103 17.4619 16.9236 17.4021 16.7442C17.3423 16.3256 16.9237 16.206 16.4453 16.1461V15.4883H16.2061V16.1461C16.6247 16.206 17.1031 16.3256 17.1629 16.7442C17.1629 16.9236 17.1629 17.103 17.1031 17.2824C17.0433 17.402 16.9237 17.4618 16.8639 17.4618C16.9237 17.4618 16.9835 17.5216 17.0433 17.5216C17.2825 17.6412 17.4021 17.8206 17.4021 18.0598C17.4021 18.2392 17.4021 18.4186 17.3423 18.5382C17.1629 18.9568 16.7443 19.0764 16.2659 19.0764C16.2061 19.0764 16.2061 19.0764 16.2061 19.1362V19.7342H16.4453V19.1362C16.4453 19.0764 16.4453 19.0764 16.5051 19.0764C16.9237 19.0764 17.4021 18.9568 17.5815 18.5382C17.6413 18.3588 17.6413 18.1794 17.6413 18.0598C17.5815 17.8206 17.4619 17.6412 17.2825 17.5216Z" fill="#E9E7FC"/>
<path d="M38.2737 2.15282V8.31229C38.2737 9.50831 37.3169 10.4651 36.1209 10.4651H31.0977L28.9448 12.1993C28.5262 12.4983 27.9282 12.1993 27.9282 11.6611V10.4651C26.7322 10.4651 25.7754 9.50831 25.7754 8.31229V2.15282C25.7754 0.956811 26.7322 0 27.9282 0H36.1209C37.3169 0.0598007 38.2737 1.01661 38.2737 2.15282Z" fill="#E9E7FC"/>
<path d="M27.9292 10.4651V11.6611C27.9292 12.1993 28.5273 12.4983 28.9459 12.1993L31.0987 10.4651H36.1817C37.3778 10.4651 38.3346 9.50828 38.3346 8.31227V2.1528C38.3346 1.43519 37.9758 0.777383 37.3778 0.418579C37.1983 0.956785 35.7033 10.2259 26.0156 9.20928C26.3146 9.92689 27.092 10.4651 27.9292 10.4651Z" fill="#DEDFFB"/>
<path d="M34.9242 1.31559L34.4458 2.93021C34.386 3.16941 34.0272 3.10961 34.0272 2.93021L33.9674 2.57141L31.6949 4.30563C31.5155 4.42523 31.2763 4.42523 31.1567 4.24583L30.3793 3.34882C30.3195 3.28902 30.2597 3.28902 30.2597 3.34882L28.3461 4.66443H28.2863H28.2265C28.1667 4.60463 28.1667 4.54483 28.2265 4.48503L30.3793 2.39201C30.5587 2.2126 30.8577 2.2724 30.9773 2.45181L31.5155 3.28902C31.5753 3.34882 31.6351 3.34882 31.6949 3.28902L33.3095 1.8538L32.8909 1.7342C32.6517 1.6744 32.6517 1.37539 32.8909 1.31559L34.5056 0.896989C34.7448 0.837189 34.984 1.07639 34.9242 1.31559Z" fill="#4C5C75"/>
<path d="M32.2334 3.58808C32.4726 3.46848 32.7118 3.28908 32.8912 3.10968C33.0706 2.93028 33.3098 2.75087 33.4892 2.57147C33.3098 2.69107 33.0706 2.87048 32.8912 3.04988C32.652 3.22928 32.4128 3.40868 32.2334 3.58808Z" fill="white"/>
<path d="M35.9412 4.18601V8.43186C35.9412 8.61126 35.7618 8.79067 35.5824 8.79067H34.5658C34.3864 8.79067 34.207 8.61126 34.207 8.43186V4.18601C34.207 4.00661 34.3864 3.82721 34.5658 3.82721H35.5824C35.7618 3.82721 35.9412 4.00661 35.9412 4.18601Z" fill="#FFD06C"/>
<path d="M32.95 5.50169V8.43192C32.95 8.61132 32.7706 8.79072 32.5912 8.79072H31.5746C31.3952 8.79072 31.2158 8.61132 31.2158 8.43192V5.50169C31.2158 5.32229 31.3952 5.14288 31.5746 5.14288H32.5912C32.7706 5.14288 32.95 5.32229 32.95 5.50169Z" fill="#F34B58"/>
<path d="M30.1407 7.11625V8.43187C30.1407 8.61127 29.9613 8.79067 29.7819 8.79067H28.7055C28.5859 8.79067 28.4663 8.73087 28.4065 8.61127C28.3467 8.55147 28.3467 8.49167 28.3467 8.43187V7.11625C28.3467 6.93685 28.5261 6.75745 28.7055 6.75745H29.7221C29.9613 6.75745 30.1407 6.93685 30.1407 7.11625Z" fill="#72D561"/>
<path d="M32.5325 5.44177C32.5923 5.68098 32.5923 5.92018 32.5923 6.15938V6.51818C32.5923 6.63779 32.5923 6.75739 32.5325 6.87699C32.4727 6.75739 32.4727 6.63779 32.4727 6.51818C32.4727 6.39858 32.4727 6.27898 32.4727 6.15938C32.4727 5.92018 32.4727 5.68098 32.5325 5.44177Z" fill="white"/>
<path d="M35.5813 6.15942C35.6411 6.51823 35.6411 6.81723 35.6411 7.17604C35.6411 7.47504 35.6411 7.89364 35.5813 8.19265C35.5215 7.89364 35.5215 7.47504 35.5215 7.17604C35.5215 6.87703 35.5215 6.51823 35.5813 6.15942Z" fill="white"/>
<defs>
<linearGradient id="paint0_linear_1175_1567" x1="3.84886" y1="33.1199" x2="7.17494" y2="41.7458" gradientUnits="userSpaceOnUse">
<stop stop-color="#EBBE49"/>
<stop offset="1" stop-color="#FFC7C6"/>
</linearGradient>
<linearGradient id="paint1_linear_1175_1567" x1="-7.29845" y1="10.0845" x2="31.9646" y2="22.5827" gradientUnits="userSpaceOnUse">
<stop offset="0.0424214" stop-color="#40A39B"/>
<stop offset="1" stop-color="#C6FFC9"/>
</linearGradient>
<linearGradient id="paint2_linear_1175_1567" x1="24.7947" y1="-2.08074" x2="10.0648" y2="36.6225" gradientUnits="userSpaceOnUse">
<stop stop-color="#C6FFC9"/>
<stop offset="1" stop-color="#D4EBFF"/>
</linearGradient>
</defs>
</svg>
