<svg width="36" height="36" viewBox="0 0 36 36" fill="none" xmlns="http://www.w3.org/2000/svg">
<path d="M0.605469 20.5219H35.395V35.3944H0.605469V20.5219Z" fill="url(#paint0_linear_1175_1504)"/>
<path fill-rule="evenodd" clip-rule="evenodd" d="M35.395 20.5218L27.8283 12.9551H8.17219L0.605469 20.5218H35.395Z" fill="url(#paint1_linear_1175_1504)"/>
<path fill-rule="evenodd" clip-rule="evenodd" d="M10.6943 35.3943H25.306V10.6937L18.0001 5.64929L10.6943 10.6937V35.3943Z" fill="url(#paint2_linear_1175_1504)"/>
<path d="M14.2158 24.2399H21.7825V35.3943H14.2158V24.2399Z" fill="url(#paint3_linear_1175_1504)"/>
<path d="M17.9998 15.4773C19.3928 15.4773 20.522 14.3481 20.522 12.9551C20.522 11.5621 19.3928 10.4329 17.9998 10.4329C16.6068 10.4329 15.4775 11.5621 15.4775 12.9551C15.4775 14.3481 16.6068 15.4773 17.9998 15.4773Z" fill="url(#paint4_linear_1175_1504)"/>
<path fill-rule="evenodd" clip-rule="evenodd" d="M10.089 21.1268H1.20773V23.6349H6.18701C6.34748 23.6349 6.50137 23.6986 6.61484 23.8121C6.7283 23.9255 6.79205 24.0794 6.79205 24.2399C6.79205 24.4004 6.7283 24.5543 6.61484 24.6677C6.50137 24.7812 6.34748 24.8449 6.18701 24.8449H1.20773V27.353H5.64951C5.80998 27.353 5.96387 27.4168 6.07734 27.5302C6.19081 27.6437 6.25455 27.7976 6.25455 27.9581C6.25455 28.1185 6.19081 28.2724 6.07734 28.3859C5.96387 28.4994 5.80998 28.5631 5.64951 28.5631H1.20773V34.7895H10.089V21.1268ZM22.202 1.21007H18.6048V2.85501C19.8312 2.44714 21.5749 2.16913 22.202 1.21007ZM17.9998 0H23.0443C23.1295 0.000401527 23.2137 0.0187545 23.2914 0.0538638C23.3691 0.0889731 23.4385 0.140051 23.4951 0.203772C23.5518 0.267493 23.5943 0.342427 23.6201 0.423695C23.6458 0.504963 23.6542 0.590742 23.6445 0.675446C23.3345 3.30115 20.4765 3.40393 18.6048 4.13806V5.33376L25.6081 10.1694C25.7001 10.2225 25.7765 10.2988 25.8296 10.3908C25.8827 10.4828 25.9106 10.5872 25.9106 10.6934V12.3497H27.8278C27.9073 12.3496 27.986 12.3652 28.0594 12.3956C28.1328 12.4261 28.1995 12.4707 28.2556 12.5269L35.8192 20.0909C35.8764 20.1471 35.9219 20.2142 35.9528 20.2882C35.9838 20.3623 35.9997 20.4417 35.9996 20.522C35.9996 25.4616 35.9988 30.4014 35.9972 35.3412C36.0046 35.4249 35.9945 35.5091 35.9676 35.5886C35.9407 35.6681 35.8975 35.7412 35.8408 35.8031C35.7841 35.865 35.7152 35.9145 35.6384 35.9483C35.5615 35.9821 35.4785 35.9996 35.3945 35.9996C32.4979 35.9996 0.605036 36.0015 0.605036 35.9972C0.525889 35.9972 0.447518 35.9816 0.374396 35.9514C0.301274 35.9211 0.234834 35.8767 0.178869 35.8207C0.0658427 35.7077 0.00234515 35.5544 0.00234515 35.3945L6.27149e-07 20.5218C-0.000115178 20.4415 0.0158079 20.3621 0.0468349 20.288C0.0778619 20.214 0.123367 20.1469 0.180679 20.0907L7.74082 12.5306C7.79707 12.4734 7.86417 12.4279 7.93819 12.397C8.01221 12.366 8.09167 12.3501 8.17191 12.3502H10.089L10.0908 10.6939C10.0908 10.5963 10.1145 10.5001 10.1598 10.4136C10.2052 10.3272 10.2709 10.253 10.3513 10.1976L17.3948 5.33406V0.605035C17.3948 0.44457 17.4585 0.290677 17.572 0.177211C17.6854 0.0637445 17.8393 0 17.9998 0ZM34.7919 28.5631H30.3501C30.1896 28.5631 30.0357 28.4994 29.9222 28.3859C29.8088 28.2724 29.745 28.1185 29.745 27.9581C29.745 27.7976 29.8088 27.6437 29.9222 27.5302C30.0357 27.4168 30.1896 27.353 30.3501 27.353H34.7919V24.8449H29.8126C29.6521 24.8449 29.4982 24.7812 29.3847 24.6677C29.2713 24.5543 29.2075 24.4004 29.2075 24.2399C29.2075 24.0794 29.2713 23.9255 29.3847 23.8121C29.4982 23.6986 29.6521 23.6349 29.8126 23.6349H34.7919V21.1268H25.9106V34.7895H34.7919L34.7919 28.5631ZM17.9998 9.82781C17.3813 9.82781 16.7766 10.0112 16.2624 10.3548C15.7481 10.6985 15.3473 11.1869 15.1106 11.7583C14.8739 12.3298 14.8119 12.9586 14.9326 13.5652C15.0533 14.1718 15.3511 14.729 15.7885 15.1664C16.2258 15.6038 16.7831 15.9016 17.3897 16.0223C17.9963 16.1429 18.6251 16.081 19.1965 15.8443C19.768 15.6076 20.2564 15.2068 20.6 14.6925C20.9437 14.1782 21.1271 13.5736 21.1271 12.9551C21.127 12.1257 20.7975 11.3303 20.211 10.7438C19.6246 10.1574 18.8292 9.82787 17.9998 9.82781ZM17.9998 11.0379C17.6206 11.0379 17.2499 11.1503 16.9346 11.361C16.6194 11.5717 16.3736 11.8711 16.2285 12.2214C16.0834 12.5717 16.0454 12.9572 16.1194 13.3291C16.1934 13.701 16.376 14.0426 16.6441 14.3108C16.9122 14.5789 17.2539 14.7615 17.6258 14.8355C17.9977 14.9094 18.3832 14.8715 18.7335 14.7263C19.0838 14.5812 19.3832 14.3355 19.5939 14.0202C19.8046 13.7049 19.917 13.3343 19.917 12.9551C19.917 12.7033 19.8674 12.454 19.7711 12.2214C19.6748 11.9888 19.5335 11.7774 19.3555 11.5994C19.1775 11.4213 18.9661 11.2801 18.7335 11.1838C18.5009 11.0874 18.2516 11.0379 17.9998 11.0379ZM21.1781 24.8449H14.8215V34.7895H21.1781V24.8449ZM14.2164 23.6349H21.7831C21.9436 23.6349 22.0975 23.6986 22.211 23.8121C22.3244 23.9255 22.3882 24.0794 22.3882 24.2399V34.7895H24.7006V11.0089L17.9998 6.38221L11.299 11.0089V34.7895H13.6114V24.2399C13.6114 24.0794 13.6751 23.9255 13.7886 23.8121C13.9021 23.6986 14.056 23.6349 14.2164 23.6349ZM25.9106 19.9168H33.934L27.5773 13.5601H25.9106V19.9168ZM10.089 13.5603H8.42224L2.06559 19.917H10.089V13.5603Z" fill="#40A39B"/>
<path fill-rule="evenodd" clip-rule="evenodd" d="M23.0445 0.605042H18V3.74502C19.7337 2.8895 22.7711 2.92051 23.0445 0.605042Z" fill="#EBBE49"/>
<defs>
<linearGradient id="paint0_linear_1175_1504" x1="-8.51556" y1="17.2483" x2="31.136" y2="42.1705" gradientUnits="userSpaceOnUse">
<stop stop-color="#C6FFC9"/>
<stop offset="1" stop-color="#D4EBFF"/>
</linearGradient>
<linearGradient id="paint1_linear_1175_1504" x1="-10.4594" y1="13.9181" x2="15.187" y2="40.2235" gradientUnits="userSpaceOnUse">
<stop offset="0.0424214" stop-color="#40A39B"/>
<stop offset="1" stop-color="#C6FFC9"/>
</linearGradient>
<linearGradient id="paint2_linear_1175_1504" x1="6.86348" y1="-0.89785" x2="29.6985" y2="2.11619" gradientUnits="userSpaceOnUse">
<stop stop-color="#C6FFC9"/>
<stop offset="1" stop-color="#D4EBFF"/>
</linearGradient>
<linearGradient id="paint3_linear_1175_1504" x1="12.232" y1="21.7847" x2="23.8763" y2="23.9071" gradientUnits="userSpaceOnUse">
<stop stop-color="#C6FFC9"/>
<stop offset="1" stop-color="#D4EBFF"/>
</linearGradient>
<linearGradient id="paint4_linear_1175_1504" x1="14.155" y1="9.32253" x2="21.6357" y2="11.3326" gradientUnits="userSpaceOnUse">
<stop stop-color="#C6FFC9"/>
<stop offset="1" stop-color="#D4EBFF"/>
</linearGradient>
</defs>
</svg>
